<?xml version="1.0" standalone="no"?>
<!DOCTYPE svg PUBLIC "-//W3C//DTD SVG 20010904//EN"
 "http://www.w3.org/TR/2001/REC-SVG-20010904/DTD/svg10.dtd">
<svg version="1.0" xmlns="http://www.w3.org/2000/svg"
 width="96.000000pt" height="96.000000pt" viewBox="0 0 96.000000 96.000000"
 preserveAspectRatio="xMidYMid meet">

<g transform="translate(0.000000,96.000000) scale(0.100000,-0.100000)"
fill="#CCCCCC" stroke="none">
<path d="M418 828 c-61 -16 -125 -80 -144 -144 -19 -65 -14 -95 31 -187 39
-79 162 -267 175 -267 26 0 200 298 214 366 19 89 -61 208 -156 232 -54 14
-69 14 -120 0z m133 -137 c64 -65 20 -171 -71 -171 -58 0 -100 42 -100 100 0
91 106 135 171 71z"/>
</g>
</svg>
