<?xml version="1.0" standalone="no"?>
<!DOCTYPE svg PUBLIC "-//W3C//DTD SVG 20010904//EN"
 "http://www.w3.org/TR/2001/REC-SVG-20010904/DTD/svg10.dtd">
<svg version="1.0" xmlns="http://www.w3.org/2000/svg"
 width="100.000000pt" height="100.000000pt" viewBox="0 0 100.000000 100.000000"
 preserveAspectRatio="xMidYMid meet">

<g transform="translate(0.000000,100.000000) scale(0.100000,-0.100000)"
fill="#000000" stroke="none">
<path d="M462 948 c-41 -60 -62 -103 -62 -127 0 -34 23 -72 51 -87 l28 -14 3
48 c2 34 7 47 18 47 11 0 16 -13 18 -47 l3 -48 28 14 c28 15 51 53 51 87 0 34
-80 169 -100 169 -5 0 -22 -19 -38 -42z"/>
<path d="M420 680 c-17 -17 -20 -33 -20 -110 l0 -90 100 0 100 0 0 90 c0 115
-12 130 -100 130 -47 0 -64 -4 -80 -20z"/>
<path d="M150 418 c-55 -38 -63 -58 -40 -96 43 -70 154 -82 214 -23 l32 31 20
-21 c57 -65 191 -65 248 0 l20 21 32 -31 c60 -59 171 -47 214 23 23 38 15 58
-40 96 -32 22 -38 22 -350 22 -312 0 -318 0 -350 -22z"/>
<path d="M80 225 l0 -65 420 0 420 0 0 66 0 66 -35 -30 c-19 -17 -50 -34 -70
-38 -49 -9 -120 3 -147 26 -23 18 -24 18 -58 -3 -50 -31 -170 -31 -220 0 -34
22 -34 22 -62 2 -59 -42 -168 -34 -222 16 l-26 24 0 -64z"/>
<path d="M0 101 c0 -40 20 -72 55 -86 51 -22 839 -22 890 0 35 14 55 46 55 86
0 19 -12 19 -500 19 -488 0 -500 0 -500 -19z"/>
</g>
</svg>
