<?xml version="1.0" standalone="no"?>
<!DOCTYPE svg PUBLIC "-//W3C//DTD SVG 20010904//EN"
 "http://www.w3.org/TR/2001/REC-SVG-20010904/DTD/svg10.dtd">
<svg version="1.0" xmlns="http://www.w3.org/2000/svg"
 width="90.000000pt" height="90.000000pt" viewBox="0 0 90.000000 90.000000"
 preserveAspectRatio="xMidYMid meet">

<g transform="translate(0.000000,90.000000) scale(0.100000,-0.100000)"
fill="#000000" stroke="none">
<path d="M623 870 c-87 -52 -83 -198 6 -245 91 -46 191 19 191 125 0 109 -107
175 -197 120z"/>
<path d="M65 611 c230 -216 338 -311 353 -311 10 0 27 6 37 14 18 13 17 14
-11 29 -32 17 -54 53 -54 91 0 41 42 88 107 121 l63 32 -23 21 c-22 21 -31 22
-257 22 -229 0 -234 0 -215 -19z"/>
<path d="M0 341 l0 -251 420 0 420 0 0 120 0 120 -139 0 -140 0 -46 -40 c-25
-22 -57 -43 -71 -46 -55 -14 -72 -1 -313 225 l-131 123 0 -251z"/>
<path d="M556 514 c-52 -19 -106 -61 -106 -83 0 -38 17 -41 237 -41 l213 0 0
43 c0 47 -11 58 -82 83 -34 12 -43 12 -68 -1 -36 -19 -87 -19 -120 0 -30 17
-25 17 -74 -1z"/>
</g>
</svg>
