<?xml version="1.0" standalone="no"?>
<!DOCTYPE svg PUBLIC "-//W3C//DTD SVG 20010904//EN"
 "http://www.w3.org/TR/2001/REC-SVG-20010904/DTD/svg10.dtd">
<svg version="1.0" xmlns="http://www.w3.org/2000/svg"
 width="64.000000pt" height="64.000000pt" viewBox="0 0 64.000000 64.000000"
 preserveAspectRatio="xMidYMid meet">

<g transform="translate(0.000000,64.000000) scale(0.100000,-0.100000)"
fill="#CCCCCC" stroke="none">
<path d="M92 597 c-16 -19 118 -153 136 -135 22 22 13 43 -41 96 -54 53 -76
62 -95 39z"/>
<path d="M340 570 c0 -5 12 -10 28 -10 91 -1 192 -106 192 -202 0 -10 5 -18
10 -18 32 0 -15 134 -61 177 -49 44 -169 82 -169 53z"/>
<path d="M46 549 c-36 -52 -10 -155 67 -261 132 -184 348 -304 436 -242 l23
17 -68 68 c-51 51 -71 66 -80 58 -23 -19 -55 2 -144 91 -89 89 -110 121 -91
144 8 9 -7 29 -58 80 l-68 68 -17 -23z"/>
<path d="M340 510 c0 -5 9 -10 20 -10 40 0 99 -39 120 -80 11 -21 20 -48 20
-60 0 -11 5 -20 10 -20 27 0 2 81 -38 124 -41 43 -132 75 -132 46z"/>
<path d="M340 450 c0 -5 9 -10 21 -10 11 0 34 -13 50 -29 16 -16 29 -39 29
-50 0 -12 5 -21 10 -21 31 0 -8 83 -50 105 -33 17 -60 20 -60 5z"/>
<path d="M340 391 c0 -5 9 -11 20 -14 11 -3 20 -12 20 -21 0 -9 5 -16 10 -16
15 0 12 27 -6 44 -17 17 -44 22 -44 7z"/>
<path d="M462 227 c-16 -19 118 -153 136 -135 22 22 13 43 -41 96 -54 53 -76
62 -95 39z"/>
</g>
</svg>
