<?xml version="1.0" standalone="no"?>
<!DOCTYPE svg PUBLIC "-//W3C//DTD SVG 20010904//EN"
 "http://www.w3.org/TR/2001/REC-SVG-20010904/DTD/svg10.dtd">
<svg version="1.0" xmlns="http://www.w3.org/2000/svg"
 width="90.000000pt" height="90.000000pt" viewBox="0 0 90.000000 90.000000"
 preserveAspectRatio="xMidYMid meet">

<g transform="translate(0.000000,90.000000) scale(0.100000,-0.100000)"
fill="#CCCCCC" stroke="none">
<path d="M201 792 c-63 -32 -76 -60 -77 -175 l-1 -102 44 -67 c67 -104 58
-139 -44 -172 -80 -26 -123 -83 -123 -163 l0 -23 180 0 c180 0 180 0 180 23 1
37 36 104 69 128 34 25 33 34 -6 44 -69 17 -81 67 -33 142 25 39 30 57 30 108
0 34 5 87 11 119 15 74 5 97 -61 130 -61 31 -120 33 -169 8z"/>
<path d="M625 766 c-11 -7 -34 -17 -51 -20 -66 -15 -86 -61 -94 -221 -3 -72
-8 -136 -11 -144 -5 -18 39 -41 92 -48 32 -5 39 -10 39 -28 0 -27 -29 -54 -97
-90 -34 -18 -57 -39 -67 -60 -32 -68 -42 -65 224 -65 266 0 256 -3 224 65 -10
21 -33 42 -67 60 -69 37 -97 63 -97 92 0 18 6 23 25 23 13 0 43 7 66 16 34 14
40 20 34 38 -3 12 -10 71 -15 133 -12 162 -34 218 -95 247 -41 20 -84 20 -110
2z"/>
</g>
</svg>
