<svg id="svg" version="1.1" xmlns="http://www.w3.org/2000/svg" xmlns:xlink="http://www.w3.org/1999/xlink" width="400" height="409.7674418604651" viewBox="0, 0, 400,409.7674418604651"><g id="svgg"><path id="path0" d="M164.093 28.415 C 156.772 31.356,148.783 43.201,141.214 62.336 C 138.736 68.601,138.292 87.804,140.024 113.800 C 140.779 125.124,140.312 155.132,139.299 160.400 C 138.217 166.023,136.191 171.475,133.456 176.123 C 130.798 180.638,130.704 181.513,132.625 183.856 C 137.192 189.430,148.842 194.425,167.267 198.710 C 174.870 200.479,175.028 200.468,181.594 197.767 C 196.249 191.737,214.378 187.173,241.000 182.810 C 260.401 179.630,262.331 179.426,265.878 180.177 C 277.403 182.618,283.717 183.271,286.100 182.271 C 288.023 181.463,288.005 181.235,285.609 175.742 C 283.223 170.275,281.422 164.278,280.628 159.160 C 278.181 143.377,277.733 138.874,277.137 124.092 C 276.734 114.085,276.749 109.470,277.225 97.492 C 278.444 66.769,278.089 58.441,275.179 49.536 C 269.506 32.174,262.174 37.577,261.250 59.800 L 261.000 65.800 258.800 66.087 C 256.784 66.350,245.724 67.541,226.200 69.597 C 218.560 70.402,202.360 71.749,195.100 72.183 L 191.200 72.416 189.440 70.795 C 185.268 66.949,181.040 59.273,176.123 46.619 C 170.114 31.157,167.420 27.079,164.093 28.415 M167.168 75.427 C 175.668 87.907,192.162 90.578,217.600 83.593 C 232.091 79.614,258.504 74.541,260.581 75.338 C 261.418 75.658,261.533 117.239,260.700 117.897 C 260.425 118.114,257.590 118.404,254.400 118.541 C 241.905 119.079,204.894 124.690,201.184 126.608 C 200.575 126.923,198.394 127.549,196.338 127.998 C 179.473 131.683,184.405 138.877,205.512 141.380 C 208.261 141.706,211.908 141.026,215.400 139.536 C 224.312 135.733,260.067 126.467,260.894 127.746 C 261.618 128.866,261.238 169.951,260.500 170.344 C 260.115 170.549,257.730 170.929,255.200 171.188 C 252.670 171.447,248.980 171.907,247.000 172.211 C 245.020 172.515,240.340 173.134,236.600 173.587 C 232.860 174.041,227.010 174.768,223.600 175.204 C 201.897 177.979,181.296 179.983,174.362 179.994 C 169.721 180.001,169.573 179.935,168.225 177.275 C 163.513 167.977,161.727 103.270,165.421 75.700 C 165.698 73.635,165.923 73.599,167.168 75.427 M375.605 161.233 C 370.377 162.412,367.818 163.336,357.400 167.809 C 307.482 189.240,262.606 224.441,224.486 272.067 C 222.256 274.854,220.244 277.249,220.015 277.391 C 217.971 278.654,220.597 243.877,223.458 231.800 C 224.240 228.500,225.058 224.810,225.275 223.600 C 226.937 214.359,220.678 194.400,216.119 194.400 C 212.443 194.400,208.367 198.952,206.248 205.427 C 204.292 211.401,204.284 211.563,204.119 249.700 C 204.034 269.445,203.821 285.600,203.646 285.600 C 203.470 285.600,198.672 280.785,192.982 274.900 C 160.982 241.802,137.832 220.019,115.000 201.523 C 113.460 200.276,111.108 198.188,109.774 196.885 C 100.364 187.693,70.786 188.268,23.161 198.570 C 16.364 200.040,14.400 201.032,14.400 202.993 C 14.400 205.736,19.543 207.647,32.200 209.608 C 61.091 214.085,88.732 221.986,110.710 232.051 C 112.091 232.683,113.321 233.200,113.444 233.200 C 113.926 233.200,130.855 241.835,135.200 244.296 C 146.196 250.527,157.549 258.048,167.400 265.627 C 178.828 274.420,194.624 288.302,193.962 288.970 C 193.738 289.195,177.523 290.834,170.000 291.393 C 168.130 291.531,163.540 291.905,159.800 292.224 C 143.372 293.622,130.705 294.435,119.471 294.813 C 85.970 295.939,83.992 296.399,84.338 302.983 C 84.384 303.865,85.037 304.787,86.902 306.607 C 94.630 314.147,105.970 316.961,120.000 314.818 C 131.362 313.083,136.084 312.316,141.400 311.343 C 144.480 310.779,148.800 309.993,151.000 309.596 C 156.185 308.660,168.666 306.167,172.000 305.400 C 173.430 305.072,178.380 303.989,183.000 302.994 C 187.620 301.999,194.055 300.548,197.299 299.768 C 200.543 298.989,203.404 298.479,203.657 298.635 C 205.010 299.471,202.657 320.973,200.427 328.149 C 199.752 330.321,199.200 332.670,199.200 333.369 C 199.200 336.894,204.917 341.424,213.384 344.608 C 216.775 345.883,216.595 346.140,211.315 347.561 C 205.892 349.020,196.694 351.791,189.938 354.000 C 180.879 356.962,172.024 358.280,157.600 358.810 C 143.207 359.339,139.126 360.966,141.684 365.153 C 147.601 374.840,159.623 383.425,173.600 387.944 C 181.600 390.531,182.311 390.484,182.980 387.331 C 184.239 381.404,200.018 369.637,217.659 361.470 C 218.837 360.925,221.780 359.545,224.200 358.405 C 233.087 354.217,250.791 346.864,264.200 341.793 C 273.389 338.318,278.033 335.824,277.355 334.728 C 276.413 333.204,256.595 336.281,231.752 341.810 C 224.905 343.334,224.902 343.332,222.619 334.800 C 219.918 324.706,218.385 297.085,220.500 296.615 C 220.995 296.506,224.460 296.047,228.200 295.596 C 231.940 295.145,237.340 294.424,240.200 293.995 C 243.060 293.566,249.990 292.572,255.600 291.787 C 261.210 291.001,268.320 289.907,271.400 289.355 C 279.247 287.948,293.875 285.401,298.400 284.655 C 313.719 282.129,318.111 281.449,323.400 280.787 C 338.056 278.951,339.229 278.740,341.110 277.596 C 343.618 276.071,341.140 273.628,333.000 269.604 C 324.544 265.422,322.268 265.011,314.205 266.208 C 307.104 267.263,282.201 272.382,281.218 272.989 C 280.391 273.500,255.461 278.884,247.816 280.203 C 241.425 281.305,241.515 281.322,243.019 279.311 C 276.045 235.166,321.959 196.904,372.790 171.166 C 384.196 165.391,386.561 163.361,384.400 161.200 C 383.364 160.164,380.293 160.176,375.605 161.233 " stroke="none" fill="#050505" fill-rule="evenodd"></path><path id="path1" d="M0.000 204.800 L 0.000 409.600 200.000 409.600 L 400.000 409.600 400.000 204.800 L 400.000 0.000 200.000 0.000 L 0.000 0.000 0.000 204.800 M168.138 29.237 C 170.167 31.607,174.888 41.193,176.196 45.600 C 178.445 53.172,185.794 66.744,189.655 70.453 L 191.288 72.022 194.944 71.780 C 199.098 71.505,213.688 70.300,223.800 69.397 C 227.540 69.063,235.280 68.259,241.000 67.611 C 246.720 66.962,253.110 66.309,255.200 66.159 C 261.148 65.732,260.644 66.423,260.909 58.332 C 261.542 38.968,268.207 32.747,274.267 45.863 C 278.035 54.017,279.188 66.575,278.026 86.800 C 275.746 126.493,279.069 161.770,286.485 176.600 C 287.693 179.015,288.112 180.616,287.797 181.610 C 287.140 183.679,278.937 183.477,268.260 181.128 L 262.720 179.909 252.860 181.370 C 238.294 183.529,218.547 187.158,210.400 189.173 C 200.108 191.718,190.002 194.840,184.400 197.206 C 174.904 201.217,174.567 201.217,159.400 197.210 C 145.491 193.534,135.195 188.318,131.608 183.129 L 130.315 181.258 131.351 179.129 C 131.921 177.958,133.020 175.920,133.794 174.600 C 135.801 171.174,137.454 166.692,138.702 161.289 L 139.785 156.600 139.793 135.200 C 139.798 120.546,139.616 111.089,139.216 105.200 C 137.919 86.122,138.451 68.291,140.476 63.000 C 149.833 38.545,162.682 22.862,168.138 29.237 M165.600 75.057 C 165.600 75.506,165.291 79.817,164.913 84.637 C 162.261 118.459,165.067 173.775,169.683 178.689 C 171.098 180.194,184.642 179.454,208.000 176.594 C 212.510 176.041,218.000 175.408,220.200 175.186 C 222.400 174.964,226.720 174.436,229.800 174.012 C 232.880 173.589,237.830 172.952,240.800 172.597 C 243.770 172.242,248.180 171.674,250.600 171.336 C 253.020 170.997,256.111 170.577,257.469 170.403 C 258.827 170.228,260.132 169.965,260.369 169.819 C 261.213 169.297,260.947 127.999,260.100 128.007 C 259.390 128.014,258.570 128.184,248.600 130.395 C 237.103 132.945,223.097 136.972,215.783 139.832 C 210.074 142.064,207.625 142.343,201.984 141.403 C 183.813 138.374,180.032 132.136,194.000 128.229 C 196.090 127.644,198.880 126.817,200.200 126.391 C 202.969 125.497,206.768 124.667,213.000 123.594 C 215.420 123.178,219.290 122.483,221.600 122.050 C 231.997 120.100,253.850 117.600,260.493 117.600 C 260.970 117.600,260.876 76.094,260.398 75.799 C 259.023 74.949,226.156 81.264,217.800 83.983 C 196.020 91.070,177.606 88.593,168.183 77.307 C 167.124 76.038,166.109 74.829,165.928 74.620 C 165.740 74.402,165.600 74.589,165.600 75.057 M383.335 160.262 C 386.434 160.775,386.193 163.715,382.851 166.156 C 381.833 166.899,377.670 169.171,373.600 171.204 C 357.120 179.436,333.676 193.560,323.320 201.495 C 322.484 202.135,319.910 204.073,317.600 205.801 C 293.945 223.494,267.165 249.523,248.874 272.600 C 246.781 275.240,244.457 278.165,243.708 279.100 C 242.959 280.035,242.461 280.800,242.602 280.800 C 243.123 280.800,259.558 277.527,264.000 276.538 C 268.315 275.578,274.177 274.221,288.000 270.982 C 320.245 263.427,325.537 263.546,338.337 272.110 C 345.659 277.008,343.982 278.918,331.229 280.207 C 328.055 280.528,324.455 280.971,323.229 281.191 C 322.003 281.412,317.400 282.128,313.000 282.783 C 308.600 283.438,300.230 284.801,294.400 285.812 C 288.570 286.822,282.180 287.916,280.200 288.241 C 278.220 288.566,274.260 289.285,271.400 289.838 C 268.540 290.392,263.590 291.185,260.400 291.601 C 257.210 292.017,252.800 292.633,250.600 292.970 C 248.400 293.307,243.900 293.933,240.600 294.360 C 234.544 295.145,223.743 296.640,221.249 297.039 L 219.898 297.255 220.115 307.328 C 220.417 321.373,221.849 332.291,224.222 338.640 C 225.816 342.902,225.174 342.760,234.068 340.826 C 238.321 339.902,243.600 338.803,245.800 338.384 C 248.000 337.965,251.529 337.266,253.642 336.831 C 258.144 335.903,267.696 334.447,272.058 334.023 C 282.156 333.042,278.786 336.847,265.000 341.991 C 261.920 343.140,258.590 344.411,257.600 344.815 C 256.610 345.219,253.460 346.467,250.600 347.589 C 247.740 348.711,245.040 349.795,244.600 349.997 C 244.160 350.200,240.020 351.972,235.400 353.935 C 222.260 359.518,210.091 365.527,201.800 370.527 C 199.157 372.121,194.443 375.232,193.417 376.059 C 187.321 380.976,184.274 384.499,183.179 387.898 C 182.244 390.802,182.008 390.847,176.200 389.233 C 164.414 385.958,154.520 380.220,146.917 372.250 C 136.523 361.353,138.122 359.181,157.105 358.412 C 171.006 357.850,180.866 356.491,187.952 354.161 C 196.631 351.307,198.372 350.771,205.975 348.610 C 210.252 347.394,214.077 346.400,214.475 346.400 C 215.537 346.400,215.360 345.727,214.224 345.442 C 212.477 345.003,205.049 341.240,203.139 339.826 C 198.718 336.554,198.170 334.573,199.913 328.183 C 202.261 319.577,202.806 315.828,203.419 304.043 L 203.677 299.087 201.712 299.347 C 200.631 299.491,197.509 300.155,194.773 300.824 C 182.761 303.761,154.509 309.557,140.400 311.979 C 118.621 315.718,113.258 316.392,108.592 315.977 C 88.759 314.214,75.261 300.048,89.710 296.160 C 92.214 295.486,94.726 295.327,111.400 294.781 C 118.440 294.551,127.980 294.100,132.600 293.780 C 148.031 292.711,157.726 291.974,166.600 291.197 C 171.440 290.774,178.910 290.133,183.200 289.773 C 194.773 288.804,194.227 289.423,188.359 283.915 C 180.800 276.818,168.703 266.812,161.841 261.980 C 146.539 251.204,136.181 244.935,122.000 237.867 C 117.930 235.839,113.610 233.752,112.400 233.230 C 98.958 227.431,94.101 225.582,82.400 221.807 C 71.112 218.166,63.294 216.074,52.411 213.784 C 48.787 213.021,45.547 212.313,45.211 212.210 C 44.875 212.108,41.000 211.475,36.600 210.805 C 18.390 208.031,12.896 205.901,14.222 202.130 C 14.814 200.447,17.270 199.327,22.844 198.197 C 25.570 197.644,28.970 196.930,30.400 196.610 C 71.191 187.481,101.234 187.701,110.795 197.200 C 112.013 198.410,115.708 201.584,119.005 204.254 C 124.986 209.097,137.031 219.486,141.200 223.398 C 142.410 224.533,146.370 228.231,150.000 231.615 C 157.494 238.602,187.520 268.507,196.873 278.300 C 200.287 281.875,203.197 284.800,203.340 284.800 C 203.483 284.800,203.600 269.630,203.600 251.090 C 203.600 229.964,203.757 216.114,204.020 213.990 C 206.088 197.302,215.052 188.655,220.540 198.054 C 225.989 207.388,227.125 219.126,223.824 232.000 C 221.334 241.711,218.413 278.589,220.291 276.600 C 220.499 276.380,222.090 274.400,223.828 272.200 C 257.662 229.366,299.865 194.752,344.400 173.308 C 365.572 163.113,377.137 159.238,383.335 160.262 " stroke="none" fill="#f3f3f3" fill-rule="evenodd"></path><path id="path2" d="M193.107 87.890 C 193.826 87.979,194.906 87.977,195.507 87.886 C 196.108 87.795,195.520 87.722,194.200 87.724 C 192.880 87.726,192.388 87.801,193.107 87.890 M147.200 229.325 C 147.200 229.394,147.785 229.979,148.500 230.625 L 149.800 231.800 148.625 230.500 C 147.530 229.288,147.200 229.016,147.200 229.325 M174.000 255.400 C 175.195 256.610,176.263 257.600,176.373 257.600 C 176.483 257.600,175.595 256.610,174.400 255.400 C 173.205 254.190,172.137 253.200,172.027 253.200 C 171.917 253.200,172.805 254.190,174.000 255.400 M191.200 272.925 C 191.200 272.994,191.785 273.579,192.500 274.225 L 193.800 275.400 192.625 274.100 C 191.530 272.888,191.200 272.616,191.200 272.925 M156.300 358.682 C 156.795 358.778,157.605 358.778,158.100 358.682 C 158.595 358.587,158.190 358.509,157.200 358.509 C 156.210 358.509,155.805 358.587,156.300 358.682 M147.800 373.200 C 148.883 374.300,149.860 375.200,149.970 375.200 C 150.080 375.200,149.283 374.300,148.200 373.200 C 147.117 372.100,146.140 371.200,146.030 371.200 C 145.920 371.200,146.717 372.100,147.800 373.200 " stroke="none" fill="#7c7c7c" fill-rule="evenodd"></path><path id="path3" d="M166.035 27.700 C 166.128 27.755,166.833 28.340,167.602 29.000 L 169.000 30.200 167.825 28.900 C 167.179 28.185,166.474 27.600,166.258 27.600 C 166.043 27.600,165.943 27.645,166.035 27.700 M155.775 34.500 L 154.600 35.800 155.900 34.625 C 156.615 33.979,157.200 33.394,157.200 33.325 C 157.200 33.016,156.870 33.288,155.775 34.500 M265.375 40.100 L 264.200 41.400 265.500 40.225 C 266.215 39.579,266.800 38.994,266.800 38.925 C 266.800 38.616,266.470 38.888,265.375 40.100 M147.400 47.200 C 147.059 47.860,146.869 48.400,146.979 48.400 C 147.089 48.400,147.459 47.860,147.800 47.200 C 148.141 46.540,148.331 46.000,148.221 46.000 C 148.111 46.000,147.741 46.540,147.400 47.200 M260.901 55.800 C 260.905 56.680,260.987 56.993,261.083 56.495 C 261.179 55.998,261.175 55.278,261.075 54.895 C 260.975 54.513,260.896 54.920,260.901 55.800 M250.500 66.676 C 250.885 66.776,251.515 66.776,251.900 66.676 C 252.285 66.575,251.970 66.493,251.200 66.493 C 250.430 66.493,250.115 66.575,250.500 66.676 M243.300 67.476 C 243.685 67.576,244.315 67.576,244.700 67.476 C 245.085 67.375,244.770 67.293,244.000 67.293 C 243.230 67.293,242.915 67.375,243.300 67.476 M239.700 67.876 C 240.085 67.976,240.715 67.976,241.100 67.876 C 241.485 67.775,241.170 67.693,240.400 67.693 C 239.630 67.693,239.315 67.775,239.700 67.876 M138.893 70.000 C 138.893 70.770,138.975 71.085,139.076 70.700 C 139.176 70.315,139.176 69.685,139.076 69.300 C 138.975 68.915,138.893 69.230,138.893 70.000 M219.300 69.876 C 219.685 69.976,220.315 69.976,220.700 69.876 C 221.085 69.775,220.770 69.693,220.000 69.693 C 219.230 69.693,218.915 69.775,219.300 69.876 M215.700 70.276 C 216.085 70.376,216.715 70.376,217.100 70.276 C 217.485 70.175,217.170 70.093,216.400 70.093 C 215.630 70.093,215.315 70.175,215.700 70.276 M211.100 70.682 C 211.595 70.778,212.405 70.778,212.900 70.682 C 213.395 70.587,212.990 70.509,212.000 70.509 C 211.010 70.509,210.605 70.587,211.100 70.682 M206.300 71.082 C 206.795 71.178,207.605 71.178,208.100 71.082 C 208.595 70.987,208.190 70.909,207.200 70.909 C 206.210 70.909,205.805 70.987,206.300 71.082 M201.505 71.483 C 202.002 71.579,202.722 71.575,203.105 71.475 C 203.487 71.375,203.080 71.296,202.200 71.301 C 201.320 71.305,201.007 71.387,201.505 71.483 M194.700 71.882 C 195.195 71.978,196.005 71.978,196.500 71.882 C 196.995 71.787,196.590 71.709,195.600 71.709 C 194.610 71.709,194.205 71.787,194.700 71.882 M138.573 82.600 C 138.573 87.880,138.630 89.985,138.699 87.277 C 138.768 84.569,138.768 80.249,138.699 77.677 C 138.629 75.105,138.572 77.320,138.573 82.600 M169.600 79.000 C 170.346 79.770,171.047 80.400,171.157 80.400 C 171.267 80.400,170.746 79.770,170.000 79.000 C 169.254 78.230,168.553 77.600,168.443 77.600 C 168.333 77.600,168.854 78.230,169.600 79.000 M278.120 81.600 C 278.120 82.810,278.195 83.305,278.287 82.700 C 278.378 82.095,278.378 81.105,278.287 80.500 C 278.195 79.895,278.120 80.390,278.120 81.600 M164.901 83.000 C 164.905 83.880,164.987 84.193,165.083 83.695 C 165.179 83.198,165.175 82.478,165.075 82.095 C 164.975 81.713,164.896 82.120,164.901 83.000 M277.731 88.600 C 277.733 90.140,277.805 90.721,277.892 89.891 C 277.979 89.061,277.977 87.801,277.889 87.091 C 277.800 86.381,277.729 87.060,277.731 88.600 M164.514 88.600 C 164.517 89.700,164.595 90.103,164.687 89.495 C 164.779 88.886,164.777 87.986,164.682 87.495 C 164.587 87.003,164.511 87.500,164.514 88.600 M189.500 87.882 C 189.995 87.978,190.805 87.978,191.300 87.882 C 191.795 87.787,191.390 87.709,190.400 87.709 C 189.410 87.709,189.005 87.787,189.500 87.882 M197.100 87.882 C 197.595 87.978,198.405 87.978,198.900 87.882 C 199.395 87.787,198.990 87.709,198.000 87.709 C 197.010 87.709,196.605 87.787,197.100 87.882 M164.131 96.200 C 164.133 97.740,164.205 98.321,164.292 97.491 C 164.379 96.661,164.377 95.401,164.289 94.691 C 164.200 93.981,164.129 94.660,164.131 96.200 M277.340 98.000 C 277.340 99.870,277.409 100.635,277.493 99.700 C 277.577 98.765,277.577 97.235,277.493 96.300 C 277.409 95.365,277.340 96.130,277.340 98.000 M138.934 99.200 C 138.934 100.850,139.005 101.525,139.091 100.700 C 139.178 99.875,139.178 98.525,139.091 97.700 C 139.005 96.875,138.934 97.550,138.934 99.200 M163.782 118.000 C 163.782 126.470,163.835 129.935,163.899 125.700 C 163.964 121.465,163.964 114.535,163.899 110.300 C 163.835 106.065,163.782 109.530,163.782 118.000 M139.309 106.800 C 139.309 107.790,139.387 108.195,139.482 107.700 C 139.578 107.205,139.578 106.395,139.482 105.900 C 139.387 105.405,139.309 105.810,139.309 106.800 M139.709 114.800 C 139.709 115.790,139.787 116.195,139.882 115.700 C 139.978 115.205,139.978 114.395,139.882 113.900 C 139.787 113.405,139.709 113.810,139.709 114.800 M258.300 117.882 C 258.795 117.978,259.605 117.978,260.100 117.882 C 260.595 117.787,260.190 117.709,259.200 117.709 C 258.210 117.709,257.805 117.787,258.300 117.882 M251.505 118.283 C 252.002 118.379,252.722 118.375,253.105 118.275 C 253.487 118.175,253.080 118.096,252.200 118.101 C 251.320 118.105,251.007 118.187,251.505 118.283 M140.181 134.600 C 140.181 142.740,140.234 146.013,140.300 141.874 C 140.365 137.734,140.365 131.074,140.299 127.074 C 140.234 123.073,140.181 126.460,140.181 134.600 M277.331 124.200 C 277.333 125.740,277.405 126.321,277.492 125.491 C 277.579 124.661,277.577 123.401,277.489 122.691 C 277.400 121.981,277.329 122.660,277.331 124.200 M277.724 132.200 C 277.726 133.520,277.801 134.012,277.890 133.293 C 277.979 132.574,277.977 131.494,277.886 130.893 C 277.795 130.292,277.722 130.880,277.724 132.200 M278.109 137.600 C 278.109 138.590,278.187 138.995,278.282 138.500 C 278.378 138.005,278.378 137.195,278.282 136.700 C 278.187 136.205,278.109 136.610,278.109 137.600 M164.140 140.800 C 164.140 142.670,164.209 143.435,164.293 142.500 C 164.377 141.565,164.377 140.035,164.293 139.100 C 164.209 138.165,164.140 138.930,164.140 140.800 M164.520 149.200 C 164.520 150.410,164.595 150.905,164.687 150.300 C 164.778 149.695,164.778 148.705,164.687 148.100 C 164.595 147.495,164.520 147.990,164.520 149.200 M139.693 154.400 C 139.693 155.170,139.775 155.485,139.876 155.100 C 139.976 154.715,139.976 154.085,139.876 153.700 C 139.775 153.315,139.693 153.630,139.693 154.400 M164.901 155.000 C 164.905 155.880,164.987 156.193,165.083 155.695 C 165.179 155.198,165.175 154.478,165.075 154.095 C 164.975 153.713,164.896 154.120,164.901 155.000 M380.300 160.282 C 380.795 160.378,381.605 160.378,382.100 160.282 C 382.595 160.187,382.190 160.109,381.200 160.109 C 380.210 160.109,379.805 160.187,380.300 160.282 M211.700 176.276 C 212.085 176.376,212.715 176.376,213.100 176.276 C 213.485 176.175,213.170 176.093,212.400 176.093 C 211.630 176.093,211.315 176.175,211.700 176.276 M208.500 176.676 C 208.885 176.776,209.515 176.776,209.900 176.676 C 210.285 176.575,209.970 176.493,209.200 176.493 C 208.430 176.493,208.115 176.575,208.500 176.676 M189.300 178.676 C 189.685 178.776,190.315 178.776,190.700 178.676 C 191.085 178.575,190.770 178.493,190.000 178.493 C 189.230 178.493,188.915 178.575,189.300 178.676 M185.105 179.083 C 185.602 179.179,186.322 179.175,186.705 179.075 C 187.087 178.975,186.680 178.896,185.800 178.901 C 184.920 178.905,184.607 178.987,185.105 179.083 M180.700 179.482 C 181.195 179.578,182.005 179.578,182.500 179.482 C 182.995 179.387,182.590 179.309,181.600 179.309 C 180.610 179.309,180.205 179.387,180.700 179.482 M172.512 179.895 C 173.564 179.977,175.184 179.976,176.112 179.892 C 177.040 179.808,176.180 179.741,174.200 179.742 C 172.220 179.743,171.460 179.812,172.512 179.895 M281.507 183.090 C 282.226 183.179,283.306 183.177,283.907 183.086 C 284.508 182.995,283.920 182.922,282.600 182.924 C 281.280 182.926,280.788 183.001,281.507 183.090 M81.911 189.893 C 82.851 189.978,84.291 189.977,85.111 189.891 C 85.930 189.805,85.160 189.736,83.400 189.737 C 81.640 189.739,80.970 189.809,81.911 189.893 M73.500 190.282 C 73.995 190.378,74.805 190.378,75.300 190.282 C 75.795 190.187,75.390 190.109,74.400 190.109 C 73.410 190.109,73.005 190.187,73.500 190.282 M90.705 190.283 C 91.202 190.379,91.922 190.375,92.305 190.275 C 92.687 190.175,92.280 190.096,91.400 190.101 C 90.520 190.105,90.207 190.187,90.705 190.283 M68.705 190.683 C 69.202 190.779,69.922 190.775,70.305 190.675 C 70.687 190.575,70.280 190.496,69.400 190.501 C 68.520 190.505,68.207 190.587,68.705 190.683 M64.705 191.083 C 65.202 191.179,65.922 191.175,66.305 191.075 C 66.687 190.975,66.280 190.896,65.400 190.901 C 64.520 190.905,64.207 190.987,64.705 191.083 M133.200 216.600 C 133.946 217.370,134.647 218.000,134.757 218.000 C 134.867 218.000,134.346 217.370,133.600 216.600 C 132.854 215.830,132.153 215.200,132.043 215.200 C 131.933 215.200,132.454 215.830,133.200 216.600 M136.600 219.600 C 137.459 220.480,138.252 221.200,138.362 221.200 C 138.472 221.200,137.859 220.480,137.000 219.600 C 136.141 218.720,135.348 218.000,135.238 218.000 C 135.128 218.000,135.741 218.720,136.600 219.600 M274.575 219.300 L 273.400 220.600 274.700 219.425 C 275.415 218.779,276.000 218.194,276.000 218.125 C 276.000 217.816,275.670 218.088,274.575 219.300 M268.175 224.900 L 267.000 226.200 268.300 225.025 C 269.015 224.379,269.600 223.794,269.600 223.725 C 269.600 223.416,269.270 223.688,268.175 224.900 M145.400 227.600 C 146.259 228.480,147.052 229.200,147.162 229.200 C 147.272 229.200,146.659 228.480,145.800 227.600 C 144.941 226.720,144.148 226.000,144.038 226.000 C 143.928 226.000,144.541 226.720,145.400 227.600 M263.200 229.400 C 262.228 230.390,261.523 231.200,261.633 231.200 C 261.743 231.200,262.628 230.390,263.600 229.400 C 264.572 228.410,265.277 227.600,265.167 227.600 C 265.057 227.600,264.172 228.410,263.200 229.400 M288.181 230.100 L 286.600 231.800 288.300 230.219 C 289.881 228.748,290.184 228.400,289.881 228.400 C 289.816 228.400,289.051 229.165,288.181 230.100 M152.200 234.000 C 153.506 235.320,154.665 236.400,154.775 236.400 C 154.885 236.400,153.906 235.320,152.600 234.000 C 151.294 232.680,150.135 231.600,150.025 231.600 C 149.915 231.600,150.894 232.680,152.200 234.000 M258.175 234.100 L 257.000 235.400 258.300 234.225 C 259.015 233.579,259.600 232.994,259.600 232.925 C 259.600 232.616,259.270 232.888,258.175 234.100 M277.400 240.400 C 274.106 243.700,271.500 246.400,271.610 246.400 C 271.720 246.400,274.506 243.700,277.800 240.400 C 281.094 237.100,283.700 234.400,283.590 234.400 C 283.480 234.400,280.694 237.100,277.400 240.400 M252.792 239.500 L 249.000 243.400 252.900 239.608 C 256.522 236.086,256.982 235.600,256.692 235.600 C 256.633 235.600,254.878 237.355,252.792 239.500 M164.200 245.600 C 166.833 248.240,169.077 250.400,169.187 250.400 C 169.297 250.400,167.233 248.240,164.600 245.600 C 161.967 242.960,159.723 240.800,159.613 240.800 C 159.503 240.800,161.567 242.960,164.200 245.600 M244.181 248.500 L 242.600 250.200 244.300 248.619 C 245.881 247.148,246.184 246.800,245.881 246.800 C 245.816 246.800,245.051 247.565,244.181 248.500 M220.893 248.800 C 220.893 249.570,220.975 249.885,221.076 249.500 C 221.176 249.115,221.176 248.485,221.076 248.100 C 220.975 247.715,220.893 248.030,220.893 248.800 M267.200 251.000 C 266.228 251.990,265.523 252.800,265.633 252.800 C 265.743 252.800,266.628 251.990,267.600 251.000 C 268.572 250.010,269.277 249.200,269.167 249.200 C 269.057 249.200,268.172 250.010,267.200 251.000 M220.493 253.200 C 220.493 253.970,220.575 254.285,220.676 253.900 C 220.776 253.515,220.776 252.885,220.676 252.500 C 220.575 252.115,220.493 252.430,220.493 253.200 M239.775 253.300 L 238.600 254.600 239.900 253.425 C 241.112 252.330,241.384 252.000,241.075 252.000 C 241.006 252.000,240.421 252.585,239.775 253.300 M263.375 255.300 L 262.200 256.600 263.500 255.425 C 264.215 254.779,264.800 254.194,264.800 254.125 C 264.800 253.816,264.470 254.088,263.375 255.300 M220.093 258.400 C 220.093 259.170,220.175 259.485,220.276 259.100 C 220.376 258.715,220.376 258.085,220.276 257.700 C 220.175 257.315,220.093 257.630,220.093 258.400 M260.175 258.900 L 259.000 260.200 260.300 259.025 C 261.512 257.930,261.784 257.600,261.475 257.600 C 261.406 257.600,260.821 258.185,260.175 258.900 M182.800 264.200 C 185.543 266.950,187.878 269.200,187.988 269.200 C 188.098 269.200,185.943 266.950,183.200 264.200 C 180.457 261.450,178.122 259.200,178.012 259.200 C 177.902 259.200,180.057 261.450,182.800 264.200 M257.375 262.100 L 256.200 263.400 257.500 262.225 C 258.215 261.579,258.800 260.994,258.800 260.925 C 258.800 260.616,258.470 260.888,257.375 262.100 M317.300 265.476 C 317.685 265.576,318.315 265.576,318.700 265.476 C 319.085 265.375,318.770 265.293,318.000 265.293 C 317.230 265.293,316.915 265.375,317.300 265.476 M219.600 272.200 C 219.600 275.243,219.710 277.623,219.845 277.489 C 220.120 277.214,220.057 267.124,219.779 266.845 C 219.680 266.747,219.600 269.157,219.600 272.200 M196.800 278.600 C 198.217 280.030,199.467 281.200,199.577 281.200 C 199.687 281.200,198.617 280.030,197.200 278.600 C 195.783 277.170,194.533 276.000,194.423 276.000 C 194.313 276.000,195.383 277.170,196.800 278.600 M185.200 281.000 C 185.946 281.770,186.647 282.400,186.757 282.400 C 186.867 282.400,186.346 281.770,185.600 281.000 C 184.854 280.230,184.153 279.600,184.043 279.600 C 183.933 279.600,184.454 280.230,185.200 281.000 M333.700 279.876 C 334.085 279.976,334.715 279.976,335.100 279.876 C 335.485 279.775,335.170 279.693,334.400 279.693 C 333.630 279.693,333.315 279.775,333.700 279.876 M190.754 286.065 C 193.151 288.566,193.249 288.741,192.354 288.911 C 191.469 289.078,191.480 289.095,192.500 289.146 C 194.087 289.224,193.908 288.873,190.900 285.988 L 188.200 283.400 190.754 286.065 M173.905 290.683 C 174.402 290.779,175.122 290.775,175.505 290.675 C 175.887 290.575,175.480 290.496,174.600 290.501 C 173.720 290.505,173.407 290.587,173.905 290.683 M169.100 291.082 C 169.595 291.178,170.405 291.178,170.900 291.082 C 171.395 290.987,170.990 290.909,170.000 290.909 C 169.010 290.909,168.605 290.987,169.100 291.082 M164.900 291.476 C 165.285 291.576,165.915 291.576,166.300 291.476 C 166.685 291.375,166.370 291.293,165.600 291.293 C 164.830 291.293,164.515 291.375,164.900 291.476 M160.500 291.876 C 160.885 291.976,161.515 291.976,161.900 291.876 C 162.285 291.775,161.970 291.693,161.200 291.693 C 160.430 291.693,160.115 291.775,160.500 291.876 M155.100 292.282 C 155.595 292.378,156.405 292.378,156.900 292.282 C 157.395 292.187,156.990 292.109,156.000 292.109 C 155.010 292.109,154.605 292.187,155.100 292.282 M149.700 292.676 C 150.085 292.776,150.715 292.776,151.100 292.676 C 151.485 292.575,151.170 292.493,150.400 292.493 C 149.630 292.493,149.315 292.575,149.700 292.676 M138.705 293.483 C 139.202 293.579,139.922 293.575,140.305 293.475 C 140.687 293.375,140.280 293.296,139.400 293.301 C 138.520 293.305,138.207 293.387,138.705 293.483 M132.905 293.887 C 133.514 293.979,134.414 293.977,134.905 293.882 C 135.397 293.787,134.900 293.711,133.800 293.714 C 132.700 293.717,132.297 293.795,132.905 293.887 M127.500 294.282 C 127.995 294.378,128.805 294.378,129.300 294.282 C 129.795 294.187,129.390 294.109,128.400 294.109 C 127.410 294.109,127.005 294.187,127.500 294.282 M118.300 294.689 C 119.015 294.778,120.185 294.778,120.900 294.689 C 121.615 294.601,121.030 294.528,119.600 294.528 C 118.170 294.528,117.585 294.601,118.300 294.689 M107.100 295.082 C 107.595 295.178,108.405 295.178,108.900 295.082 C 109.395 294.987,108.990 294.909,108.000 294.909 C 107.010 294.909,106.605 294.987,107.100 295.082 M94.700 295.482 C 95.195 295.578,96.005 295.578,96.500 295.482 C 96.995 295.387,96.590 295.309,95.600 295.309 C 94.610 295.309,94.205 295.387,94.700 295.482 M219.775 297.322 C 219.664 297.609,219.631 300.084,219.701 302.822 L 219.827 307.800 219.914 302.529 C 219.990 297.889,220.084 297.237,220.700 297.076 C 221.356 296.904,221.355 296.890,220.687 296.846 C 220.296 296.821,219.885 297.035,219.775 297.322 M83.701 301.800 C 83.705 302.680,83.787 302.993,83.883 302.495 C 83.979 301.998,83.975 301.278,83.875 300.895 C 83.775 300.513,83.696 300.920,83.701 301.800 M203.324 305.800 C 203.326 307.120,203.401 307.612,203.490 306.893 C 203.579 306.174,203.577 305.094,203.486 304.493 C 203.395 303.892,203.322 304.480,203.324 305.800 M86.000 306.600 C 86.746 307.370,87.447 308.000,87.557 308.000 C 87.667 308.000,87.146 307.370,86.400 306.600 C 85.654 305.830,84.953 305.200,84.843 305.200 C 84.733 305.200,85.254 305.830,86.000 306.600 M106.900 315.876 C 107.285 315.976,107.915 315.976,108.300 315.876 C 108.685 315.775,108.370 315.693,107.600 315.693 C 106.830 315.693,106.515 315.775,106.900 315.876 M220.493 320.000 C 220.493 320.770,220.575 321.085,220.676 320.700 C 220.776 320.315,220.776 319.685,220.676 319.300 C 220.575 318.915,220.493 319.230,220.493 320.000 M220.893 323.600 C 220.893 324.370,220.975 324.685,221.076 324.300 C 221.176 323.915,221.176 323.285,221.076 322.900 C 220.975 322.515,220.893 322.830,220.893 323.600 M277.100 334.265 C 277.788 334.543,277.726 335.184,276.915 336.169 C 276.283 336.935,276.303 336.932,277.170 336.133 C 278.131 335.248,278.096 333.971,277.113 334.032 C 276.711 334.056,276.708 334.107,277.100 334.265 M201.200 338.200 C 201.946 338.970,202.647 339.600,202.757 339.600 C 202.867 339.600,202.346 338.970,201.600 338.200 C 200.854 337.430,200.153 336.800,200.043 336.800 C 199.933 336.800,200.454 337.430,201.200 338.200 M174.900 357.076 C 175.285 357.176,175.915 357.176,176.300 357.076 C 176.685 356.975,176.370 356.893,175.600 356.893 C 174.830 356.893,174.515 356.975,174.900 357.076 M163.505 358.283 C 164.002 358.379,164.722 358.375,165.105 358.275 C 165.487 358.175,165.080 358.096,164.200 358.101 C 163.320 358.105,163.007 358.187,163.505 358.283 M151.900 358.689 C 152.615 358.778,153.785 358.778,154.500 358.689 C 155.215 358.601,154.630 358.528,153.200 358.528 C 151.770 358.528,151.185 358.601,151.900 358.689 M190.175 378.500 L 189.000 379.800 190.300 378.625 C 191.512 377.530,191.784 377.200,191.475 377.200 C 191.406 377.200,190.821 377.785,190.175 378.500 M162.400 383.796 C 162.400 384.070,164.849 385.284,165.032 385.101 C 165.119 385.014,164.562 384.644,163.795 384.278 C 163.028 383.912,162.400 383.695,162.400 383.796 " stroke="none" fill="#9d9d9d" fill-rule="evenodd"></path><path id="path4" d="M261.293 54.800 C 261.293 55.570,261.375 55.885,261.476 55.500 C 261.576 55.115,261.576 54.485,261.476 54.100 C 261.375 53.715,261.293 54.030,261.293 54.800 M260.797 62.282 C 260.689 64.307,260.743 65.820,260.917 65.645 C 261.092 65.469,261.180 63.812,261.114 61.963 L 260.994 58.600 260.797 62.282 M278.169 70.600 C 278.170 75.220,278.228 77.055,278.299 74.678 C 278.370 72.301,278.369 68.521,278.298 66.278 C 278.227 64.035,278.169 65.980,278.169 70.600 M222.500 69.876 C 222.885 69.976,223.515 69.976,223.900 69.876 C 224.285 69.775,223.970 69.693,223.200 69.693 C 222.430 69.693,222.115 69.775,222.500 69.876 M218.900 70.276 C 219.285 70.376,219.915 70.376,220.300 70.276 C 220.685 70.175,220.370 70.093,219.600 70.093 C 218.830 70.093,218.515 70.175,218.900 70.276 M198.905 71.887 C 199.514 71.979,200.414 71.977,200.905 71.882 C 201.397 71.787,200.900 71.711,199.800 71.714 C 198.700 71.717,198.297 71.795,198.905 71.887 M138.934 74.800 C 138.934 76.450,139.005 77.125,139.091 76.300 C 139.178 75.475,139.178 74.125,139.091 73.300 C 139.005 72.475,138.934 73.150,138.934 74.800 M191.905 72.283 C 192.402 72.379,193.122 72.375,193.505 72.275 C 193.887 72.175,193.480 72.096,192.600 72.101 C 191.720 72.105,191.407 72.187,191.905 72.283 M260.986 96.600 C 260.986 108.260,261.037 112.972,261.100 107.072 C 261.162 101.171,261.162 91.631,261.100 85.872 C 261.037 80.112,260.986 84.940,260.986 96.600 M169.800 78.800 C 170.883 79.900,171.860 80.800,171.970 80.800 C 172.080 80.800,171.283 79.900,170.200 78.800 C 169.117 77.700,168.140 76.800,168.030 76.800 C 167.920 76.800,168.717 77.700,169.800 78.800 M164.501 84.200 C 164.505 85.080,164.587 85.393,164.683 84.895 C 164.779 84.398,164.775 83.678,164.675 83.295 C 164.575 82.913,164.496 83.320,164.501 84.200 M277.693 84.000 C 277.693 84.770,277.775 85.085,277.876 84.700 C 277.976 84.315,277.976 83.685,277.876 83.300 C 277.775 82.915,277.693 83.230,277.693 84.000 M138.955 89.400 C 138.956 92.260,139.020 93.378,139.097 91.883 C 139.174 90.389,139.174 88.049,139.096 86.683 C 139.018 85.318,138.955 86.540,138.955 89.400 M188.500 87.476 C 188.885 87.576,189.515 87.576,189.900 87.476 C 190.285 87.375,189.970 87.293,189.200 87.293 C 188.430 87.293,188.115 87.375,188.500 87.476 M198.705 87.483 C 199.202 87.579,199.922 87.575,200.305 87.475 C 200.687 87.375,200.280 87.296,199.400 87.301 C 198.520 87.305,198.207 87.387,198.705 87.483 M164.120 90.000 C 164.120 91.210,164.195 91.705,164.287 91.100 C 164.378 90.495,164.378 89.505,164.287 88.900 C 164.195 88.295,164.120 88.790,164.120 90.000 M277.320 91.200 C 277.320 92.410,277.395 92.905,277.487 92.300 C 277.578 91.695,277.578 90.705,277.487 90.100 C 277.395 89.495,277.320 89.990,277.320 91.200 M163.728 98.400 C 163.728 99.830,163.801 100.415,163.889 99.700 C 163.978 98.985,163.978 97.815,163.889 97.100 C 163.801 96.385,163.728 96.970,163.728 98.400 M276.975 111.200 C 276.975 117.030,277.031 119.415,277.099 116.500 C 277.167 113.585,277.167 108.815,277.099 105.900 C 277.031 102.985,276.975 105.370,276.975 111.200 M139.301 102.600 C 139.305 103.480,139.387 103.793,139.483 103.295 C 139.579 102.798,139.575 102.078,139.475 101.695 C 139.375 101.313,139.296 101.720,139.301 102.600 M163.331 116.200 C 163.333 117.740,163.405 118.321,163.492 117.491 C 163.579 116.661,163.577 115.401,163.489 114.691 C 163.400 113.981,163.329 114.660,163.331 116.200 M140.101 117.800 C 140.105 118.680,140.187 118.993,140.283 118.495 C 140.379 117.998,140.375 117.278,140.275 116.895 C 140.175 116.513,140.096 116.920,140.101 117.800 M255.911 118.293 C 256.851 118.378,258.291 118.377,259.111 118.291 C 259.930 118.205,259.160 118.136,257.400 118.137 C 255.640 118.139,254.970 118.209,255.911 118.293 M249.500 118.682 C 249.995 118.778,250.805 118.778,251.300 118.682 C 251.795 118.587,251.390 118.509,250.400 118.509 C 249.410 118.509,249.005 118.587,249.500 118.682 M260.800 149.080 C 260.690 160.784,260.737 170.224,260.904 170.057 C 261.071 169.889,261.161 160.313,261.103 148.776 L 261.000 127.800 260.800 149.080 M277.309 130.000 C 277.309 130.990,277.387 131.395,277.482 130.900 C 277.578 130.405,277.578 129.595,277.482 129.100 C 277.387 128.605,277.309 129.010,277.309 130.000 M163.734 138.000 C 163.734 139.650,163.805 140.325,163.891 139.500 C 163.978 138.675,163.978 137.325,163.891 136.500 C 163.805 135.675,163.734 136.350,163.734 138.000 M164.120 147.600 C 164.120 148.810,164.195 149.305,164.287 148.700 C 164.378 148.095,164.378 147.105,164.287 146.500 C 164.195 145.895,164.120 146.390,164.120 147.600 M140.093 152.000 C 140.093 152.770,140.175 153.085,140.276 152.700 C 140.376 152.315,140.376 151.685,140.276 151.300 C 140.175 150.915,140.093 151.230,140.093 152.000 M164.501 153.800 C 164.505 154.680,164.587 154.993,164.683 154.495 C 164.779 153.998,164.775 153.278,164.675 152.895 C 164.575 152.513,164.496 152.920,164.501 153.800 M184.100 179.476 C 184.485 179.576,185.115 179.576,185.500 179.476 C 185.885 179.375,185.570 179.293,184.800 179.293 C 184.030 179.293,183.715 179.375,184.100 179.476 M261.500 179.882 C 261.995 179.978,262.805 179.978,263.300 179.882 C 263.795 179.787,263.390 179.709,262.400 179.709 C 261.410 179.709,261.005 179.787,261.500 179.882 M80.300 190.297 C 81.895 190.373,84.505 190.373,86.100 190.297 C 87.695 190.221,86.390 190.159,83.200 190.159 C 80.010 190.159,78.705 190.221,80.300 190.297 M72.305 190.683 C 72.802 190.779,73.522 190.775,73.905 190.675 C 74.287 190.575,73.880 190.496,73.000 190.501 C 72.120 190.505,71.807 190.587,72.305 190.683 M108.800 195.725 C 108.800 195.794,109.385 196.379,110.100 197.025 L 111.400 198.200 110.225 196.900 C 109.130 195.688,108.800 195.416,108.800 195.725 M225.709 218.800 C 225.709 219.790,225.787 220.195,225.882 219.700 C 225.978 219.205,225.978 218.395,225.882 217.900 C 225.787 217.405,225.709 217.810,225.709 218.800 M203.791 252.000 C 203.791 270.590,203.840 278.195,203.900 268.900 C 203.960 259.605,203.960 244.395,203.900 235.100 C 203.840 225.805,203.791 233.410,203.791 252.000 M140.000 223.000 C 140.746 223.770,141.447 224.400,141.557 224.400 C 141.667 224.400,141.146 223.770,140.400 223.000 C 139.654 222.230,138.953 221.600,138.843 221.600 C 138.733 221.600,139.254 222.230,140.000 223.000 M268.778 224.700 L 267.400 226.200 268.900 224.822 C 270.296 223.538,270.584 223.200,270.278 223.200 C 270.212 223.200,269.537 223.875,268.778 224.700 M291.578 226.700 L 290.200 228.200 291.700 226.822 C 292.525 226.063,293.200 225.388,293.200 225.322 C 293.200 225.016,292.862 225.304,291.578 226.700 M145.000 227.600 C 145.859 228.480,146.652 229.200,146.762 229.200 C 146.872 229.200,146.259 228.480,145.400 227.600 C 144.541 226.720,143.748 226.000,143.638 226.000 C 143.528 226.000,144.141 226.720,145.000 227.600 M264.386 228.700 L 262.200 231.000 264.500 228.814 C 266.637 226.782,266.983 226.400,266.686 226.400 C 266.624 226.400,265.589 227.435,264.386 228.700 M286.800 231.000 C 285.828 231.990,285.123 232.800,285.233 232.800 C 285.343 232.800,286.228 231.990,287.200 231.000 C 288.172 230.010,288.877 229.200,288.767 229.200 C 288.657 229.200,287.772 230.010,286.800 231.000 M151.183 233.300 C 152.841 235.066,153.200 235.384,153.200 235.083 C 153.200 235.019,152.345 234.164,151.300 233.183 L 149.400 231.400 151.183 233.300 M253.995 238.700 L 247.800 245.000 254.100 238.805 C 259.953 233.049,260.581 232.400,260.295 232.400 C 260.237 232.400,257.402 235.235,253.995 238.700 M277.188 240.300 L 274.600 243.000 277.300 240.412 C 278.785 238.988,280.000 237.773,280.000 237.712 C 280.000 237.417,279.593 237.792,277.188 240.300 M161.000 242.800 C 162.971 244.780,164.673 246.400,164.783 246.400 C 164.893 246.400,163.371 244.780,161.400 242.800 C 159.429 240.820,157.727 239.200,157.617 239.200 C 157.507 239.200,159.029 240.820,161.000 242.800 M243.781 249.300 L 242.200 251.000 243.900 249.419 C 244.835 248.549,245.600 247.784,245.600 247.719 C 245.600 247.416,245.252 247.719,243.781 249.300 M268.185 249.700 L 266.200 251.800 268.300 249.815 C 269.455 248.723,270.400 247.778,270.400 247.715 C 270.400 247.417,270.029 247.749,268.185 249.700 M220.493 250.000 C 220.493 250.770,220.575 251.085,220.676 250.700 C 220.776 250.315,220.776 249.685,220.676 249.300 C 220.575 248.915,220.493 249.230,220.493 250.000 M263.375 254.900 L 262.200 256.200 263.500 255.025 C 264.712 253.930,264.984 253.600,264.675 253.600 C 264.606 253.600,264.021 254.185,263.375 254.900 M236.575 257.300 L 235.400 258.600 236.700 257.425 C 237.912 256.330,238.184 256.000,237.875 256.000 C 237.806 256.000,237.221 256.585,236.575 257.300 M219.720 263.600 C 219.720 264.810,219.795 265.305,219.887 264.700 C 219.978 264.095,219.978 263.105,219.887 262.500 C 219.795 261.895,219.720 262.390,219.720 263.600 M186.793 268.500 C 189.099 270.865,191.034 272.800,191.093 272.800 C 191.382 272.800,190.894 272.287,186.900 268.393 L 182.600 264.200 186.793 268.500 M320.700 265.482 C 321.195 265.578,322.005 265.578,322.500 265.482 C 322.995 265.387,322.590 265.309,321.600 265.309 C 320.610 265.309,320.205 265.387,320.700 265.482 M197.400 279.600 C 199.150 281.360,200.671 282.800,200.781 282.800 C 200.891 282.800,199.550 281.360,197.800 279.600 C 196.050 277.840,194.529 276.400,194.419 276.400 C 194.309 276.400,195.650 277.840,197.400 279.600 M191.400 286.400 C 192.706 287.720,193.865 288.800,193.975 288.800 C 194.085 288.800,193.106 287.720,191.800 286.400 C 190.494 285.080,189.335 284.000,189.225 284.000 C 189.115 284.000,190.094 285.080,191.400 286.400 M190.100 289.476 C 190.485 289.576,191.115 289.576,191.500 289.476 C 191.885 289.375,191.570 289.293,190.800 289.293 C 190.030 289.293,189.715 289.375,190.100 289.476 M185.700 289.876 C 186.085 289.976,186.715 289.976,187.100 289.876 C 187.485 289.775,187.170 289.693,186.400 289.693 C 185.630 289.693,185.315 289.775,185.700 289.876 M181.505 290.283 C 182.002 290.379,182.722 290.375,183.105 290.275 C 183.487 290.175,183.080 290.096,182.200 290.101 C 181.320 290.105,181.007 290.187,181.505 290.283 M177.300 290.676 C 177.685 290.776,178.315 290.776,178.700 290.676 C 179.085 290.575,178.770 290.493,178.000 290.493 C 177.230 290.493,176.915 290.575,177.300 290.676 M173.105 291.083 C 173.602 291.179,174.322 291.175,174.705 291.075 C 175.087 290.975,174.680 290.896,173.800 290.901 C 172.920 290.905,172.607 290.987,173.105 291.083 M168.100 291.476 C 168.485 291.576,169.115 291.576,169.500 291.476 C 169.885 291.375,169.570 291.293,168.800 291.293 C 168.030 291.293,167.715 291.375,168.100 291.476 M153.105 292.683 C 153.602 292.779,154.322 292.775,154.705 292.675 C 155.087 292.575,154.680 292.496,153.800 292.501 C 152.920 292.505,152.607 292.587,153.105 292.683 M147.705 293.087 C 148.314 293.179,149.214 293.177,149.705 293.082 C 150.197 292.987,149.700 292.911,148.600 292.914 C 147.500 292.917,147.097 292.995,147.705 293.087 M142.300 293.482 C 142.795 293.578,143.605 293.578,144.100 293.482 C 144.595 293.387,144.190 293.309,143.200 293.309 C 142.210 293.309,141.805 293.387,142.300 293.482 M137.700 293.876 C 138.085 293.976,138.715 293.976,139.100 293.876 C 139.485 293.775,139.170 293.693,138.400 293.693 C 137.630 293.693,137.315 293.775,137.700 293.876 M131.500 294.282 C 131.995 294.378,132.805 294.378,133.300 294.282 C 133.795 294.187,133.390 294.109,132.400 294.109 C 131.410 294.109,131.005 294.187,131.500 294.282 M124.705 294.683 C 125.202 294.779,125.922 294.775,126.305 294.675 C 126.687 294.575,126.280 294.496,125.400 294.501 C 124.520 294.505,124.207 294.587,124.705 294.683 M111.100 295.082 C 111.595 295.178,112.405 295.178,112.900 295.082 C 113.395 294.987,112.990 294.909,112.000 294.909 C 111.010 294.909,110.605 294.987,111.100 295.082 M99.700 295.491 C 100.525 295.578,101.875 295.578,102.700 295.491 C 103.525 295.405,102.850 295.334,101.200 295.334 C 99.550 295.334,98.875 295.405,99.700 295.491 M202.886 298.650 C 203.455 298.819,203.595 299.476,203.708 302.527 L 203.843 306.200 203.822 302.405 C 203.802 298.911,203.736 298.603,203.000 298.528 C 202.405 298.467,202.375 298.498,202.886 298.650 M86.383 306.500 C 87.364 307.545,88.219 308.400,88.283 308.400 C 88.584 308.400,88.266 308.041,86.500 306.383 L 84.600 304.600 86.383 306.500 M219.709 310.400 C 219.709 311.390,219.787 311.795,219.882 311.300 C 219.978 310.805,219.978 309.995,219.882 309.500 C 219.787 309.005,219.709 309.410,219.709 310.400 M203.301 310.600 C 203.305 311.480,203.387 311.793,203.483 311.295 C 203.579 310.798,203.575 310.078,203.475 309.695 C 203.375 309.313,203.296 309.720,203.301 310.600 M110.900 315.887 C 111.505 315.978,112.495 315.978,113.100 315.887 C 113.705 315.795,113.210 315.720,112.000 315.720 C 110.790 315.720,110.295 315.795,110.900 315.887 M273.300 334.287 C 273.905 334.378,274.895 334.378,275.500 334.287 C 276.105 334.195,275.610 334.120,274.400 334.120 C 273.190 334.120,272.695 334.195,273.300 334.287 M159.891 358.689 C 160.601 358.777,161.861 358.779,162.691 358.692 C 163.521 358.605,162.940 358.533,161.400 358.531 C 159.860 358.529,159.181 358.600,159.891 358.689 M149.505 359.083 C 150.002 359.179,150.722 359.175,151.105 359.075 C 151.487 358.975,151.080 358.896,150.200 358.901 C 149.320 358.905,149.007 358.987,149.505 359.083 M215.100 362.629 C 213.549 363.470,213.725 363.761,215.300 362.959 C 216.808 362.193,217.075 361.994,216.567 362.016 C 216.365 362.025,215.705 362.301,215.100 362.629 " stroke="none" fill="#747474" fill-rule="evenodd"></path></g></svg>