<?xml version="1.0" standalone="no"?>
<!DOCTYPE svg PUBLIC "-//W3C//DTD SVG 20010904//EN"
 "http://www.w3.org/TR/2001/REC-SVG-20010904/DTD/svg10.dtd">
<svg version="1.0" xmlns="http://www.w3.org/2000/svg"
 width="225.000000pt" height="225.000000pt" viewBox="0 0 225.000000 225.000000"
 preserveAspectRatio="xMidYMid meet">
<metadata>
Created by potrace 1.16, written by Peter Selinger 2001-2019
</metadata>
<g transform="translate(0.000000,225.000000) scale(0.100000,-0.100000)"
fill="#ffffff" stroke="none">
<path d="M0 1125 l0 -1125 1125 0 1125 0 0 1125 0 1125 -1125 0 -1125 0 0
-1125z m623 627 c94 -63 246 -162 337 -222 l164 -108 36 23 c19 12 150 98 290
190 140 92 293 193 340 223 47 30 97 64 113 74 l27 19 0 -825 0 -826 -360 0
-360 0 0 314 0 314 128 80 127 81 5 -272 5 -272 105 0 105 0 3 463 c1 254 0
462 -2 462 -2 0 -128 -79 -280 -175 -152 -96 -279 -175 -281 -175 -2 0 -129
79 -281 175 -152 96 -278 175 -280 175 -2 0 -3 -208 -2 -462 l3 -463 105 0
105 0 5 272 5 272 128 -81 127 -80 0 -314 0 -314 -360 0 -360 0 0 825 0 825
65 -43 c36 -23 143 -93 238 -155z"/>
</g>
</svg>
