<svg id="svg" version="1.1" xmlns="http://www.w3.org/2000/svg" xmlns:xlink="http://www.w3.org/1999/xlink" width="400" height="632.7455919395466" viewBox="0, 0, 400,632.7455919395466"><g id="svgg"><path id="path0" d="M317.776 16.187 C 317.349 16.510,316.505 16.780,315.900 16.787 C 315.295 16.794,314.800 16.980,314.800 17.200 C 314.800 17.420,314.468 17.600,314.062 17.600 C 313.366 17.600,312.000 18.747,312.000 19.331 C 312.000 19.479,311.280 20.320,310.400 21.200 C 309.520 22.080,308.800 23.070,308.800 23.400 C 308.800 23.730,308.620 24.000,308.400 24.000 C 308.180 24.000,308.000 24.341,308.000 24.757 C 308.000 25.174,307.730 25.618,307.400 25.745 C 307.070 25.871,306.800 26.431,306.800 26.987 C 306.800 27.544,306.620 28.000,306.400 28.000 C 306.180 28.000,306.000 28.630,306.000 29.400 C 306.000 30.378,305.819 30.800,305.400 30.800 C 305.027 30.800,304.800 31.178,304.800 31.800 C 304.800 32.350,304.640 32.800,304.443 32.800 C 304.247 32.800,303.974 33.250,303.836 33.800 C 303.698 34.350,303.408 34.800,303.192 34.800 C 302.977 34.800,302.800 35.325,302.800 35.968 C 302.800 37.104,301.702 39.666,301.100 39.933 C 300.935 40.007,300.800 40.661,300.800 41.387 C 300.800 42.350,300.593 42.761,300.035 42.907 C 299.433 43.064,299.213 43.608,299.006 45.454 C 298.660 48.527,298.556 48.798,297.713 48.813 C 297.321 48.820,296.651 49.090,296.224 49.413 C 295.796 49.736,294.862 50.000,294.147 50.000 C 293.432 50.000,292.736 50.180,292.600 50.400 C 292.464 50.620,291.508 50.801,290.476 50.802 C 289.444 50.804,288.084 51.074,287.454 51.402 C 286.824 51.731,285.645 52.000,284.834 52.000 C 284.023 52.000,283.189 52.163,282.980 52.362 C 282.771 52.561,281.084 52.789,279.231 52.868 C 277.024 52.963,275.806 53.183,275.698 53.506 C 275.595 53.816,274.735 54.000,273.390 54.000 C 272.212 54.000,271.136 54.180,271.000 54.400 C 270.864 54.620,269.728 54.806,268.476 54.813 C 267.112 54.820,265.889 55.061,265.424 55.413 C 264.950 55.771,263.750 56.000,262.347 56.000 C 261.082 56.000,259.936 56.180,259.800 56.400 C 259.664 56.620,257.988 56.818,256.076 56.840 C 254.164 56.862,250.800 57.058,248.600 57.275 C 246.400 57.493,238.570 57.818,231.200 57.999 C 216.100 58.368,210.483 58.662,207.000 59.262 C 205.680 59.490,203.340 59.755,201.800 59.852 C 200.260 59.950,198.640 60.194,198.200 60.397 C 197.760 60.599,195.024 60.817,192.120 60.882 C 188.569 60.961,186.676 61.164,186.340 61.500 C 185.733 62.107,183.122 62.162,182.541 61.581 C 182.249 61.289,181.804 61.306,181.073 61.640 C 180.242 62.018,179.893 62.009,179.395 61.596 C 178.943 61.221,178.644 61.196,178.332 61.508 C 178.045 61.795,177.568 61.816,176.923 61.571 C 176.290 61.330,175.667 61.350,175.148 61.628 C 174.554 61.946,174.186 61.920,173.713 61.528 C 173.199 61.101,165.964 60.977,135.920 60.880 C 94.928 60.747,97.200 60.898,97.200 58.311 C 97.200 57.700,97.040 57.200,96.843 57.200 C 96.647 57.200,96.374 56.750,96.236 56.200 C 96.098 55.650,95.808 55.200,95.592 55.200 C 95.377 55.200,95.200 54.992,95.200 54.738 C 95.200 54.484,94.750 53.686,94.200 52.964 C 93.650 52.243,93.200 51.281,93.200 50.827 C 93.200 50.359,92.940 50.000,92.600 50.000 C 92.252 50.000,92.000 49.638,92.000 49.138 C 92.000 48.664,91.550 47.686,91.000 46.964 C 90.450 46.243,90.000 45.539,90.000 45.398 C 90.000 45.258,89.775 44.892,89.500 44.585 C 88.202 43.138,88.000 42.765,88.000 41.817 C 88.000 41.258,87.820 40.800,87.600 40.800 C 87.380 40.800,87.200 40.573,87.200 40.296 C 87.200 40.019,86.750 39.307,86.200 38.713 C 85.650 38.120,85.200 37.525,85.200 37.391 C 85.200 36.960,83.069 34.244,81.589 32.789 C 80.800 32.013,80.039 31.079,79.899 30.713 C 79.758 30.346,79.138 29.724,78.521 29.330 C 77.905 28.936,77.156 28.284,76.858 27.880 C 76.561 27.476,76.075 27.239,75.779 27.353 C 75.476 27.469,75.133 27.219,74.994 26.780 C 74.665 25.746,73.582 25.783,73.306 26.837 C 73.132 27.502,72.847 27.639,71.920 27.503 C 71.163 27.392,70.584 27.554,70.270 27.966 C 70.005 28.315,69.464 28.780,69.067 29.000 C 68.671 29.220,68.043 29.940,67.673 30.600 C 67.303 31.260,66.865 31.860,66.700 31.933 C 66.223 32.145,66.353 33.600,66.849 33.600 C 67.172 33.600,67.166 33.759,66.830 34.164 C 66.509 34.550,66.494 34.811,66.781 34.988 C 67.336 35.331,67.322 40.918,66.765 41.475 C 66.452 41.788,66.452 41.985,66.765 42.178 C 67.004 42.326,67.200 43.146,67.200 44.000 C 67.200 44.854,67.380 45.664,67.600 45.800 C 67.820 45.936,68.000 47.032,68.000 48.236 C 68.000 49.813,68.168 50.490,68.600 50.655 C 68.989 50.805,69.200 51.425,69.200 52.419 C 69.200 53.263,69.380 54.064,69.600 54.200 C 69.820 54.336,70.006 54.932,70.013 55.524 C 70.020 56.116,70.290 56.949,70.613 57.376 C 70.936 57.804,71.200 58.569,71.200 59.076 C 71.200 59.584,71.380 60.000,71.600 60.000 C 71.820 60.000,72.000 60.180,72.000 60.400 C 72.000 60.620,71.640 60.800,71.200 60.800 C 70.756 60.800,70.400 60.533,70.400 60.200 C 70.400 59.870,70.220 59.600,70.000 59.600 C 69.780 59.600,69.600 59.862,69.600 60.183 C 69.600 60.677,67.836 60.783,57.985 60.883 C 49.805 60.965,46.286 61.136,46.085 61.458 C 45.928 61.710,44.810 62.011,43.600 62.127 C 39.402 62.529,38.800 62.766,38.800 64.012 C 38.800 64.629,38.590 65.203,38.333 65.289 C 36.867 65.778,38.207 70.439,40.300 72.131 C 40.797 72.533,41.460 73.118,41.774 73.431 C 42.087 73.744,42.458 74.000,42.598 74.000 C 42.739 74.000,43.443 74.450,44.164 75.000 C 44.886 75.550,45.786 76.000,46.166 76.000 C 46.546 76.000,47.127 76.270,47.457 76.600 C 47.787 76.930,48.394 77.200,48.805 77.200 C 49.216 77.200,49.664 77.380,49.800 77.600 C 49.936 77.820,50.442 78.006,50.924 78.013 C 51.406 78.020,52.149 78.290,52.576 78.613 C 53.004 78.936,54.129 79.200,55.076 79.200 C 56.024 79.200,56.800 79.380,56.800 79.600 C 56.800 79.820,57.501 80.000,58.357 80.000 C 59.372 80.000,59.995 80.209,60.145 80.600 C 60.296 80.994,60.920 81.200,61.964 81.200 C 62.838 81.200,63.664 81.380,63.800 81.600 C 63.936 81.820,64.679 82.000,65.452 82.000 C 66.225 82.000,67.127 82.270,67.457 82.600 C 67.807 82.950,68.785 83.200,69.805 83.200 C 70.766 83.200,71.664 83.380,71.800 83.600 C 71.936 83.820,73.394 84.000,75.040 84.000 C 78.089 84.000,78.352 84.101,80.219 85.996 C 81.029 86.818,81.200 87.389,81.200 89.272 C 81.200 90.527,81.380 91.664,81.600 91.800 C 81.820 91.936,82.000 92.564,82.000 93.195 C 82.000 93.826,82.270 94.613,82.600 94.943 C 82.930 95.273,83.200 96.175,83.200 96.948 C 83.200 97.721,83.397 98.475,83.638 98.624 C 83.879 98.773,84.002 99.529,83.912 100.304 C 83.782 101.420,83.901 101.754,84.485 101.906 C 84.948 102.027,85.146 102.341,85.016 102.750 C 84.903 103.107,85.078 103.916,85.405 104.546 C 85.732 105.176,86.000 106.288,86.000 107.017 C 86.000 107.746,86.270 108.613,86.600 108.943 C 86.930 109.273,87.200 110.175,87.200 110.948 C 87.200 111.721,87.395 112.473,87.632 112.620 C 87.870 112.767,87.964 113.288,87.841 113.778 C 87.697 114.352,87.898 114.969,88.409 115.517 C 88.844 115.984,89.200 116.903,89.200 117.560 C 89.200 118.216,89.364 118.854,89.565 118.978 C 89.766 119.103,90.052 119.923,90.200 120.802 C 90.349 121.681,90.634 122.400,90.835 122.400 C 91.036 122.400,91.200 123.480,91.200 124.800 C 91.200 126.317,91.366 127.200,91.652 127.200 C 91.953 127.200,92.034 127.818,91.896 129.049 C 91.718 130.625,91.799 130.927,92.444 131.096 C 93.068 131.259,93.200 131.671,93.200 133.459 C 93.200 135.015,93.369 135.690,93.800 135.855 C 94.238 136.024,94.400 136.714,94.400 138.419 C 94.400 139.703,94.580 140.864,94.800 141.000 C 95.023 141.138,95.200 142.988,95.200 145.175 C 95.200 148.178,95.341 149.219,95.800 149.600 C 96.245 149.970,96.400 150.956,96.400 153.425 C 96.400 155.255,96.580 156.864,96.800 157.000 C 97.020 157.136,97.200 158.772,97.200 160.636 C 97.200 163.280,97.332 164.076,97.800 164.255 C 98.282 164.440,98.400 165.336,98.400 168.819 C 98.400 171.277,98.573 173.260,98.800 173.400 C 99.024 173.539,99.208 175.524,99.218 177.924 C 99.229 180.598,99.451 182.800,99.812 183.800 C 100.250 185.017,100.389 187.619,100.394 194.676 C 100.398 200.423,100.552 204.047,100.800 204.200 C 101.344 204.536,101.344 225.064,100.800 225.400 C 100.555 225.551,100.400 228.676,100.400 233.440 C 100.400 240.442,100.326 241.313,99.667 242.020 C 99.088 242.641,98.972 243.256,99.113 244.952 C 99.223 246.281,99.121 247.202,98.845 247.372 C 98.594 247.527,98.400 248.750,98.400 250.175 C 98.400 251.933,98.217 252.854,97.800 253.200 C 97.404 253.528,97.200 254.422,97.200 255.825 C 97.200 256.995,97.020 258.064,96.800 258.200 C 96.580 258.336,96.400 259.497,96.400 260.781 C 96.400 262.486,96.238 263.176,95.800 263.345 C 95.347 263.519,95.200 264.251,95.200 266.341 C 95.200 269.168,94.444 270.400,92.710 270.400 C 92.425 270.400,91.707 270.850,91.113 271.400 C 90.520 271.950,89.751 272.400,89.405 272.400 C 89.058 272.400,88.671 272.670,88.545 273.000 C 88.418 273.330,88.064 273.600,87.757 273.600 C 87.451 273.600,87.200 273.780,87.200 274.000 C 87.200 274.220,86.930 274.400,86.600 274.400 C 86.270 274.400,86.000 274.591,86.000 274.824 C 86.000 275.057,85.845 275.152,85.656 275.035 C 85.248 274.782,83.208 275.668,83.203 276.100 C 83.201 276.265,82.924 276.400,82.587 276.400 C 82.251 276.400,81.871 276.670,81.745 277.000 C 81.618 277.330,81.264 277.600,80.957 277.600 C 80.651 277.600,80.400 277.780,80.400 278.000 C 80.400 278.220,80.034 278.400,79.587 278.400 C 79.141 278.400,78.671 278.670,78.545 279.000 C 78.418 279.330,77.884 279.600,77.357 279.600 C 76.831 279.600,76.400 279.780,76.400 280.000 C 76.400 280.220,76.149 280.400,75.843 280.400 C 75.536 280.400,75.182 280.670,75.055 281.000 C 74.929 281.330,74.541 281.600,74.193 281.600 C 73.845 281.600,72.912 282.230,72.119 283.000 C 71.326 283.770,70.345 284.400,69.939 284.400 C 69.532 284.400,69.200 284.670,69.200 285.000 C 69.200 285.330,68.938 285.600,68.617 285.600 C 67.562 285.600,63.141 290.456,62.912 291.865 C 62.460 294.650,64.326 298.400,66.164 298.400 C 66.545 298.400,67.127 298.670,67.457 299.000 C 67.865 299.408,68.874 299.600,70.605 299.600 C 72.006 299.600,73.264 299.780,73.400 300.000 C 73.722 300.521,77.878 300.521,78.200 300.000 C 78.336 299.780,79.675 299.600,81.175 299.600 C 83.037 299.600,84.051 299.421,84.371 299.035 C 84.811 298.505,85.782 298.349,92.326 297.758 C 93.965 297.610,94.928 297.331,95.069 296.965 C 95.215 296.585,95.926 296.400,97.243 296.400 C 98.319 296.400,99.200 296.220,99.200 296.000 C 99.200 295.780,99.650 295.600,100.200 295.600 C 100.750 295.600,101.200 295.780,101.200 296.000 C 101.200 296.242,102.933 296.400,105.600 296.400 C 108.020 296.400,110.000 296.240,110.000 296.043 C 110.000 295.847,110.438 295.577,110.973 295.442 C 111.509 295.308,112.061 294.839,112.200 294.399 C 112.340 293.960,112.622 293.600,112.827 293.600 C 113.032 293.600,113.200 293.330,113.200 293.000 C 113.200 292.670,113.393 292.400,113.629 292.400 C 114.162 292.400,115.200 291.390,115.200 290.871 C 115.200 290.659,115.470 290.382,115.800 290.255 C 116.130 290.129,116.400 289.695,116.400 289.293 C 116.400 288.295,117.172 287.600,118.280 287.600 C 118.831 287.600,119.200 287.359,119.200 287.000 C 119.200 286.568,119.642 286.400,120.776 286.400 C 121.643 286.400,122.464 286.220,122.600 286.000 C 122.736 285.780,123.382 285.600,124.036 285.600 C 124.724 285.600,125.322 285.347,125.455 285.000 C 125.597 284.630,126.205 284.400,127.043 284.400 C 127.789 284.400,128.400 284.220,128.400 284.000 C 128.400 283.780,128.918 283.600,129.551 283.600 C 130.184 283.600,130.926 283.330,131.200 283.000 C 131.474 282.670,132.295 282.400,133.025 282.400 C 133.755 282.400,134.464 282.220,134.600 282.000 C 134.736 281.780,135.607 281.600,136.535 281.600 C 137.463 281.600,138.577 281.353,139.011 281.052 C 139.445 280.751,140.430 280.404,141.200 280.281 C 144.279 279.790,146.182 279.254,146.321 278.838 C 146.401 278.597,147.172 278.400,148.033 278.400 C 148.895 278.400,149.600 278.220,149.600 278.000 C 149.600 277.770,150.835 277.599,152.500 277.598 C 154.290 277.596,155.839 277.366,156.546 276.998 C 157.213 276.649,158.758 276.400,160.246 276.400 C 161.651 276.400,162.800 276.237,162.800 276.038 C 162.800 275.839,165.293 275.614,168.339 275.538 C 171.822 275.451,174.090 275.224,174.448 274.927 C 175.046 274.430,177.496 274.267,193.326 273.669 C 199.441 273.437,203.014 273.146,203.306 272.854 C 203.873 272.287,205.701 272.261,206.253 272.813 C 206.480 273.040,209.403 273.339,212.748 273.476 C 216.093 273.613,218.924 273.877,219.039 274.063 C 219.153 274.248,220.842 274.400,222.790 274.400 C 225.177 274.400,226.385 274.556,226.492 274.877 C 226.646 275.337,229.934 275.752,237.399 276.253 C 239.159 276.371,240.835 276.663,241.124 276.903 C 241.412 277.142,243.483 277.481,245.724 277.655 C 251.343 278.091,253.268 278.408,254.189 279.050 C 254.623 279.352,255.568 279.600,256.289 279.600 C 257.010 279.600,257.600 279.780,257.600 280.000 C 257.600 280.220,258.153 280.400,258.829 280.400 C 259.504 280.400,260.327 280.670,260.657 281.000 C 261.026 281.369,262.007 281.600,263.205 281.600 C 264.276 281.600,265.264 281.780,265.400 282.000 C 265.536 282.220,266.272 282.400,267.036 282.400 C 267.902 282.400,268.512 282.626,268.655 283.000 C 268.785 283.338,269.381 283.600,270.019 283.600 C 270.643 283.600,271.264 283.780,271.400 284.000 C 271.536 284.220,272.244 284.400,272.973 284.400 L 274.299 284.400 274.472 292.602 C 274.590 298.219,274.795 300.955,275.122 301.282 C 275.428 301.588,275.600 303.174,275.600 305.680 C 275.600 307.836,275.761 309.600,275.958 309.600 C 276.155 309.600,276.380 311.790,276.459 314.467 C 276.560 317.890,276.751 319.384,277.102 319.501 C 277.455 319.618,277.600 320.817,277.600 323.610 C 277.600 325.778,277.757 327.650,277.948 327.768 C 278.140 327.886,278.425 330.147,278.583 332.792 C 278.741 335.436,279.034 337.600,279.235 337.600 C 279.436 337.600,279.600 338.686,279.600 340.013 C 279.600 341.788,279.758 342.486,280.200 342.655 C 280.638 342.824,280.800 343.514,280.800 345.219 C 280.800 346.503,280.980 347.664,281.200 347.800 C 281.420 347.936,281.600 348.924,281.600 349.995 C 281.600 351.193,281.831 352.174,282.200 352.543 C 282.558 352.901,282.800 353.879,282.800 354.971 C 282.800 355.977,282.980 356.800,283.200 356.800 C 283.428 356.800,283.600 357.984,283.600 359.551 C 283.600 361.508,283.773 362.446,284.200 362.800 C 284.609 363.139,284.800 364.047,284.800 365.649 C 284.800 366.950,284.979 368.000,285.200 368.000 C 285.422 368.000,285.600 369.057,285.600 370.371 C 285.600 371.946,285.802 372.944,286.200 373.343 C 286.576 373.718,286.800 374.702,286.800 375.971 C 286.800 377.087,286.980 378.000,287.200 378.000 C 287.420 378.000,287.600 378.887,287.600 379.971 C 287.600 381.190,287.829 382.172,288.200 382.543 C 288.633 382.976,288.800 384.032,288.800 386.348 C 288.800 388.111,288.980 389.664,289.200 389.800 C 289.420 389.936,289.600 390.744,289.600 391.595 C 289.600 392.446,289.870 393.413,290.200 393.743 C 290.558 394.101,290.800 395.079,290.800 396.171 C 290.800 397.177,290.980 398.000,291.200 398.000 C 291.420 398.000,291.600 398.707,291.600 399.571 C 291.600 400.436,291.870 401.413,292.200 401.743 C 292.600 402.143,292.800 403.143,292.800 404.748 C 292.800 406.071,292.980 407.264,293.200 407.400 C 293.420 407.536,293.600 408.254,293.600 408.995 C 293.600 409.736,293.849 410.592,294.154 410.897 C 294.458 411.201,294.802 412.249,294.918 413.225 C 295.227 415.832,295.832 418.314,296.300 418.893 C 296.742 419.439,297.061 421.292,297.518 425.968 C 297.692 427.747,298.007 429.002,298.304 429.101 C 298.623 429.208,298.800 430.101,298.800 431.610 C 298.800 432.898,298.980 434.064,299.200 434.200 C 299.420 434.336,299.600 435.144,299.600 435.995 C 299.600 436.846,299.870 437.813,300.200 438.143 C 300.556 438.499,300.800 439.477,300.800 440.548 C 300.800 441.541,300.980 442.464,301.200 442.600 C 301.420 442.736,301.600 443.394,301.600 444.063 C 301.600 444.732,301.858 445.846,302.174 446.540 C 302.490 447.233,302.831 448.700,302.931 449.800 C 303.178 452.498,303.981 455.600,304.432 455.600 C 304.635 455.600,304.800 456.298,304.800 457.151 C 304.800 458.042,305.055 458.914,305.400 459.200 C 305.730 459.474,306.000 460.126,306.000 460.649 C 306.000 461.172,306.180 461.600,306.400 461.600 C 306.620 461.600,306.800 462.478,306.800 463.551 C 306.800 464.797,307.017 465.682,307.400 466.000 C 307.730 466.274,308.000 467.095,308.000 467.825 C 308.000 468.555,308.180 469.264,308.400 469.400 C 308.620 469.536,308.800 470.065,308.800 470.575 C 308.800 471.085,309.070 471.726,309.400 472.000 C 309.730 472.274,310.000 473.016,310.000 473.649 C 310.000 474.282,310.180 474.800,310.400 474.800 C 310.620 474.800,310.800 475.417,310.800 476.171 C 310.800 476.926,311.070 477.813,311.400 478.143 C 311.734 478.477,312.000 479.455,312.000 480.348 C 312.000 481.231,312.180 482.064,312.400 482.200 C 312.620 482.336,312.800 482.977,312.800 483.624 C 312.800 484.403,313.003 484.800,313.400 484.800 C 313.829 484.800,314.000 485.238,314.000 486.339 C 314.000 487.842,314.878 490.154,315.625 490.616 C 315.831 490.743,316.000 491.287,316.000 491.824 C 316.000 492.361,316.180 492.800,316.400 492.800 C 316.620 492.800,316.800 493.507,316.800 494.371 C 316.800 495.236,317.070 496.213,317.400 496.543 C 317.730 496.873,318.000 497.516,318.000 497.971 C 318.000 498.427,318.180 498.800,318.400 498.800 C 318.620 498.800,318.800 499.250,318.800 499.800 C 318.800 500.422,319.027 500.800,319.400 500.800 C 319.773 500.800,320.000 501.178,320.000 501.800 C 320.000 502.350,320.180 502.800,320.400 502.800 C 320.620 502.800,320.800 503.436,320.800 504.213 C 320.800 505.099,321.023 505.711,321.400 505.855 C 321.730 505.982,322.000 506.358,322.000 506.692 C 322.000 507.210,321.904 507.219,321.335 506.749 C 320.816 506.321,320.633 506.310,320.502 506.700 C 320.267 507.398,318.934 507.326,318.655 506.600 C 318.479 506.141,317.724 506.000,315.436 506.000 C 313.792 506.000,312.336 505.820,312.200 505.600 C 312.064 505.380,310.993 505.200,309.819 505.200 C 308.292 505.200,307.620 505.030,307.455 504.600 C 307.298 504.190,306.657 504.000,305.436 504.000 C 304.452 504.000,303.536 503.820,303.400 503.600 C 303.264 503.380,301.923 503.200,300.419 503.200 C 298.358 503.200,297.629 503.052,297.455 502.600 C 297.277 502.136,296.502 502.000,294.036 502.000 C 292.282 502.000,290.741 501.828,290.611 501.618 C 290.482 501.409,289.297 501.115,287.979 500.966 C 286.661 500.817,285.486 500.538,285.367 500.347 C 285.249 500.156,284.162 500.000,282.950 500.000 C 281.739 500.000,280.354 499.789,279.874 499.532 C 278.815 498.966,274.669 498.399,269.800 498.157 C 267.820 498.058,265.768 497.758,265.240 497.489 C 263.828 496.770,213.540 496.781,213.300 497.500 C 213.187 497.840,212.184 498.000,210.167 498.000 C 208.535 498.000,207.200 498.156,207.200 498.346 C 207.200 498.537,205.920 498.784,204.355 498.896 C 202.790 499.008,201.395 499.278,201.255 499.496 C 200.977 499.928,198.816 499.905,198.101 499.462 C 197.856 499.311,197.542 499.370,197.404 499.593 C 197.266 499.817,196.634 500.000,196.000 500.000 C 195.366 500.000,194.751 500.156,194.632 500.347 C 194.514 500.539,193.154 500.819,191.609 500.972 C 190.064 501.124,188.800 501.418,188.800 501.624 C 188.800 501.832,187.099 502.000,184.987 502.000 C 181.968 502.000,181.127 502.125,180.945 502.600 C 180.776 503.038,180.086 503.200,178.381 503.200 C 177.097 503.200,175.936 503.380,175.800 503.600 C 175.664 503.820,174.753 504.000,173.776 504.000 C 172.464 504.000,172.000 504.157,172.000 504.600 C 172.000 505.053,171.511 505.200,170.000 505.200 C 168.900 505.200,168.000 505.380,168.000 505.600 C 168.000 505.822,166.929 506.000,165.587 506.000 C 163.812 506.000,163.114 506.158,162.945 506.600 C 162.803 506.970,162.195 507.200,161.357 507.200 C 160.611 507.200,160.000 507.361,160.000 507.558 C 160.000 508.141,157.841 507.856,157.313 507.202 C 157.045 506.871,156.820 506.028,156.813 505.329 C 156.806 504.629,156.530 503.787,156.200 503.457 C 155.870 503.127,155.600 502.304,155.600 501.629 C 155.600 500.953,155.420 500.400,155.200 500.400 C 154.980 500.400,154.800 499.792,154.800 499.049 C 154.800 498.306,154.530 497.474,154.200 497.200 C 153.783 496.854,153.600 495.933,153.600 494.175 C 153.600 492.785,153.420 491.536,153.200 491.400 C 152.980 491.264,152.800 490.542,152.800 489.796 C 152.800 489.050,152.551 488.296,152.247 488.120 C 151.943 487.944,151.601 487.080,151.488 486.200 C 151.194 483.927,150.420 481.067,149.977 480.620 C 149.770 480.411,149.600 479.657,149.600 478.944 C 149.600 478.231,149.420 477.536,149.200 477.400 C 148.980 477.264,148.800 476.735,148.800 476.225 C 148.800 475.715,148.530 475.074,148.200 474.800 C 147.870 474.526,147.600 473.986,147.600 473.600 C 147.600 473.214,147.330 472.674,147.000 472.400 C 146.670 472.126,146.400 471.474,146.400 470.951 C 146.400 470.428,146.220 470.000,146.000 470.000 C 145.780 470.000,145.600 469.634,145.600 469.187 C 145.600 468.741,145.330 468.271,145.000 468.145 C 144.633 468.004,144.400 467.397,144.400 466.581 C 144.400 465.847,144.220 465.136,144.000 465.000 C 143.780 464.864,143.600 464.398,143.600 463.964 C 143.600 463.530,143.330 463.071,143.000 462.945 C 142.670 462.818,142.400 462.294,142.400 461.781 C 142.400 461.267,142.220 460.736,142.000 460.600 C 141.780 460.464,141.600 460.016,141.600 459.605 C 141.600 459.194,141.330 458.587,141.000 458.257 C 140.670 457.927,140.400 457.461,140.400 457.222 C 140.400 456.130,139.354 453.600,138.903 453.600 C 138.595 453.600,138.400 453.057,138.400 452.200 C 138.400 451.430,138.220 450.800,138.000 450.800 C 137.780 450.800,137.600 450.434,137.600 449.987 C 137.600 449.541,137.330 449.071,137.000 448.945 C 136.670 448.818,136.400 448.284,136.400 447.757 C 136.400 447.231,136.220 446.800,136.000 446.800 C 135.780 446.800,135.600 446.282,135.600 445.649 C 135.600 445.016,135.330 444.274,135.000 444.000 C 134.670 443.726,134.400 443.190,134.400 442.809 C 134.400 442.428,133.950 441.631,133.400 441.038 C 132.850 440.444,132.400 439.803,132.400 439.612 C 132.400 439.065,131.033 436.805,130.700 436.803 C 130.535 436.801,130.400 436.530,130.400 436.200 C 130.400 435.870,130.220 435.600,130.000 435.600 C 129.780 435.600,129.600 435.349,129.600 435.043 C 129.600 434.736,129.330 434.382,129.000 434.255 C 128.670 434.129,128.400 433.837,128.400 433.607 C 128.400 433.378,127.500 432.294,126.400 431.200 C 125.300 430.106,124.400 429.105,124.400 428.977 C 124.400 428.691,123.335 427.600,123.057 427.600 C 122.947 427.600,122.196 426.976,121.387 426.214 C 120.579 425.451,119.576 424.719,119.159 424.587 C 118.741 424.454,118.400 424.178,118.400 423.973 C 118.400 423.768,118.130 423.600,117.800 423.600 C 117.470 423.600,117.200 423.407,117.200 423.171 C 117.200 422.466,116.114 421.600,115.229 421.600 C 114.759 421.600,114.400 421.340,114.400 421.000 C 114.400 420.670,114.130 420.400,113.800 420.400 C 113.469 420.400,113.200 420.045,113.200 419.608 C 113.200 419.114,112.852 418.728,112.277 418.584 C 111.769 418.456,111.024 417.913,110.621 417.376 C 110.218 416.839,109.553 416.400,109.144 416.400 C 108.735 416.400,108.400 416.220,108.400 416.000 C 108.400 415.780,108.130 415.600,107.800 415.600 C 107.470 415.600,107.200 415.414,107.200 415.187 C 107.200 414.473,104.809 412.400,103.986 412.400 C 103.554 412.400,103.200 412.130,103.200 411.800 C 103.200 411.470,103.020 411.200,102.800 411.200 C 102.580 411.200,102.400 410.924,102.400 410.587 C 102.400 410.251,102.130 409.871,101.800 409.745 C 101.470 409.618,101.200 409.264,101.200 408.957 C 101.200 408.651,101.007 408.400,100.771 408.400 C 100.536 408.400,100.092 408.175,99.785 407.900 C 98.428 406.682,98.002 406.400,97.517 406.394 C 97.125 406.389,97.135 406.302,97.558 406.034 C 98.260 405.590,97.842 404.400,96.984 404.400 C 96.631 404.400,96.092 404.175,95.785 403.900 C 94.462 402.713,94.009 402.400,93.617 402.400 C 93.388 402.400,93.200 402.223,93.200 402.008 C 93.200 401.792,92.750 401.502,92.200 401.364 C 91.650 401.226,91.200 400.953,91.200 400.757 C 91.200 400.560,90.930 400.400,90.600 400.400 C 90.270 400.400,90.000 400.223,90.000 400.008 C 90.000 399.792,89.550 399.502,89.000 399.364 C 88.450 399.226,88.000 398.953,88.000 398.757 C 88.000 398.560,87.550 398.400,87.000 398.400 C 86.378 398.400,86.000 398.173,86.000 397.800 C 86.000 397.427,85.622 397.200,85.000 397.200 C 84.450 397.200,84.000 397.020,84.000 396.800 C 84.000 396.580,83.550 396.400,83.000 396.400 C 82.378 396.400,82.000 396.173,82.000 395.800 C 82.000 395.431,81.625 395.200,81.024 395.200 C 80.487 395.200,79.936 395.020,79.800 394.800 C 79.664 394.580,79.225 394.400,78.825 394.400 C 78.425 394.400,77.874 394.130,77.600 393.800 C 76.957 393.026,74.632 393.026,73.857 393.800 C 73.527 394.130,72.974 394.400,72.629 394.400 C 72.217 394.400,71.989 394.780,71.968 395.500 C 71.951 396.105,71.846 396.375,71.735 396.100 C 71.411 395.297,70.400 395.525,70.400 396.400 C 70.400 396.840,70.580 397.200,70.800 397.200 C 71.028 397.200,71.200 398.392,71.200 399.976 C 71.200 401.503,71.380 402.864,71.600 403.000 C 71.820 403.136,72.000 403.755,72.000 404.375 C 72.000 404.995,72.270 405.726,72.600 406.000 C 72.930 406.274,73.200 406.715,73.200 406.979 C 73.200 407.569,74.885 409.200,75.494 409.200 C 75.737 409.200,76.050 409.718,76.189 410.350 C 76.479 411.669,79.685 415.200,80.593 415.200 C 80.952 415.200,81.205 415.568,81.213 416.100 C 81.227 417.132,82.072 418.400,82.744 418.400 C 82.995 418.400,83.200 418.607,83.200 418.860 C 83.200 419.112,83.830 419.931,84.600 420.679 C 85.370 421.427,86.000 422.201,86.000 422.400 C 86.000 422.910,91.472 428.400,91.981 428.400 C 92.211 428.400,92.400 428.593,92.400 428.829 C 92.400 429.382,93.418 430.400,93.971 430.400 C 94.207 430.400,94.400 430.593,94.400 430.829 C 94.400 431.382,95.418 432.400,95.971 432.400 C 96.207 432.400,96.400 432.593,96.400 432.829 C 96.400 433.382,97.418 434.400,97.971 434.400 C 98.207 434.400,98.400 434.593,98.400 434.829 C 98.400 435.382,99.418 436.400,99.971 436.400 C 100.207 436.400,100.400 436.639,100.400 436.930 C 100.400 437.222,100.850 437.883,101.400 438.400 C 101.950 438.917,102.400 439.578,102.400 439.870 C 102.400 440.161,102.578 440.400,102.795 440.400 C 103.012 440.400,103.867 441.136,104.695 442.035 C 105.523 442.934,106.875 444.367,107.700 445.219 C 108.525 446.071,109.200 446.956,109.200 447.184 C 109.200 447.413,109.470 447.600,109.800 447.600 C 110.168 447.600,110.400 447.974,110.400 448.567 C 110.400 449.098,110.535 449.593,110.700 449.667 C 111.211 449.894,113.273 453.261,113.042 453.492 C 112.922 453.612,113.178 454.208,113.612 454.817 C 114.045 455.425,114.400 456.470,114.400 457.138 C 114.400 457.806,114.560 458.451,114.755 458.572 C 114.950 458.693,115.228 459.423,115.373 460.196 C 115.518 460.968,115.785 461.600,115.966 461.600 C 116.147 461.600,116.400 462.243,116.527 463.030 C 116.801 464.717,117.669 466.800,118.098 466.800 C 118.264 466.800,118.400 467.346,118.400 468.013 C 118.400 468.721,118.649 469.321,119.000 469.455 C 119.389 469.605,119.600 470.225,119.600 471.219 C 119.600 472.063,119.780 472.864,120.000 473.000 C 120.220 473.136,120.400 473.584,120.400 473.995 C 120.400 474.406,120.670 475.013,121.000 475.343 C 121.330 475.673,121.600 476.485,121.600 477.148 C 121.600 477.811,121.780 478.464,122.000 478.600 C 122.220 478.736,122.400 479.287,122.400 479.824 C 122.400 480.425,122.631 480.800,123.000 480.800 C 123.480 480.800,123.600 481.397,123.600 483.776 C 123.600 485.413,123.780 486.864,124.000 487.000 C 124.220 487.136,124.400 487.917,124.400 488.735 C 124.400 489.553,124.686 490.630,125.035 491.128 C 125.531 491.836,125.566 492.159,125.196 492.605 C 124.705 493.197,125.428 495.600,126.098 495.600 C 126.264 495.600,126.400 496.320,126.400 497.200 C 126.400 498.356,126.567 498.800,127.000 498.800 C 127.453 498.800,127.600 499.289,127.600 500.800 C 127.600 501.900,127.780 502.800,128.000 502.800 C 128.220 502.800,128.400 503.777,128.400 504.971 C 128.400 506.368,128.614 507.357,129.000 507.743 C 129.334 508.077,129.600 509.055,129.600 509.948 C 129.600 510.831,129.780 511.664,130.000 511.800 C 130.220 511.936,130.400 512.924,130.400 513.995 C 130.400 515.193,130.631 516.174,131.000 516.543 C 132.174 517.717,131.765 519.483,130.200 520.000 C 129.430 520.254,128.800 520.628,128.800 520.831 C 128.800 521.034,128.530 521.200,128.200 521.200 C 127.870 521.200,127.600 521.360,127.600 521.557 C 127.600 521.753,127.150 522.026,126.600 522.164 C 126.050 522.302,125.600 522.592,125.600 522.808 C 125.600 523.023,125.265 523.200,124.856 523.200 C 124.447 523.200,123.774 523.650,123.361 524.200 C 122.948 524.750,122.228 525.200,121.761 525.200 C 121.294 525.200,120.574 525.650,120.161 526.200 C 119.748 526.750,119.183 527.200,118.905 527.200 C 118.627 527.200,118.400 527.368,118.400 527.573 C 118.400 527.778,118.085 528.049,117.700 528.174 C 117.315 528.299,116.337 529.031,115.527 529.801 C 114.716 530.570,113.905 531.200,113.723 531.200 C 113.541 531.200,112.907 531.650,112.313 532.200 C 111.720 532.750,111.054 533.200,110.834 533.200 C 110.278 533.200,108.400 535.280,108.400 535.896 C 108.400 536.173,108.052 536.400,107.627 536.400 C 107.181 536.400,106.735 536.774,106.573 537.285 C 106.419 537.771,105.866 538.505,105.346 538.914 C 104.826 539.323,104.400 539.924,104.400 540.248 C 104.400 540.573,103.950 541.255,103.400 541.765 C 102.850 542.275,102.400 542.874,102.400 543.097 C 102.400 543.320,102.130 543.726,101.800 544.000 C 101.470 544.274,101.200 545.095,101.200 545.825 C 101.200 546.555,101.020 547.264,100.800 547.400 C 100.580 547.536,100.400 548.076,100.400 548.600 C 100.400 549.124,100.580 549.664,100.800 549.800 C 101.020 549.936,101.200 550.557,101.200 551.181 C 101.200 551.804,101.457 552.413,101.771 552.534 C 102.085 552.654,102.400 553.258,102.471 553.876 C 102.576 554.792,102.822 555.025,103.800 555.135 C 104.460 555.209,105.144 555.524,105.320 555.835 C 105.496 556.146,106.045 556.400,106.540 556.400 C 107.035 556.400,107.643 556.603,107.892 556.852 C 108.893 557.853,117.203 557.347,118.388 556.211 C 118.969 555.655,119.768 555.200,120.164 555.200 C 120.561 555.200,121.229 554.762,121.650 554.227 C 122.071 553.692,122.817 553.197,123.308 553.127 C 123.839 553.051,124.247 552.676,124.316 552.200 C 124.425 551.445,126.000 550.400,127.031 550.400 C 127.290 550.400,127.726 550.130,128.000 549.800 C 129.070 548.511,130.400 549.049,130.400 550.771 C 130.400 551.688,130.671 552.613,131.050 552.993 C 131.522 553.465,131.641 554.081,131.484 555.247 C 131.334 556.370,131.428 556.913,131.798 557.055 C 132.090 557.166,132.437 557.695,132.572 558.229 C 132.706 558.763,132.992 559.200,133.208 559.200 C 133.423 559.200,133.600 559.470,133.600 559.800 C 133.600 560.687,141.915 560.687,142.255 559.800 C 142.387 559.458,142.983 559.200,143.643 559.200 C 144.405 559.200,144.800 559.405,144.800 559.800 C 144.800 560.219,145.222 560.400,146.200 560.400 C 147.178 560.400,147.600 560.581,147.600 561.000 C 147.600 561.420,148.024 561.600,149.013 561.600 C 149.899 561.600,150.511 561.377,150.655 561.000 C 150.782 560.670,151.206 560.400,151.597 560.400 C 152.679 560.400,153.600 558.646,153.600 556.586 C 153.600 555.481,153.840 554.503,154.200 554.143 C 154.530 553.813,154.800 553.016,154.800 552.371 C 154.800 551.727,154.980 551.200,155.200 551.200 C 155.420 551.200,155.600 550.502,155.600 549.649 C 155.600 548.758,155.855 547.886,156.200 547.600 C 156.530 547.326,156.800 546.674,156.800 546.151 C 156.800 545.628,156.980 545.200,157.200 545.200 C 157.420 545.200,157.600 544.502,157.600 543.649 C 157.600 542.758,157.855 541.886,158.200 541.600 C 158.584 541.282,158.800 540.397,158.800 539.146 C 158.800 536.464,160.185 534.189,161.509 534.697 C 161.807 534.812,162.320 534.522,162.648 534.053 C 162.977 533.584,163.585 533.200,163.999 533.200 C 164.414 533.200,164.864 533.020,165.000 532.800 C 165.136 532.580,165.764 532.400,166.395 532.400 C 167.026 532.400,167.813 532.130,168.143 531.800 C 168.473 531.470,169.301 531.200,169.984 531.200 C 170.718 531.200,171.319 530.955,171.455 530.600 C 171.585 530.262,172.181 530.000,172.819 530.000 C 173.443 530.000,174.064 529.820,174.200 529.600 C 174.336 529.380,174.964 529.200,175.595 529.200 C 176.226 529.200,177.013 528.930,177.343 528.600 C 177.677 528.266,178.655 528.000,179.548 528.000 C 180.431 528.000,181.264 527.820,181.400 527.600 C 181.536 527.380,182.992 527.200,184.636 527.200 C 186.924 527.200,187.679 527.059,187.855 526.600 C 188.024 526.161,188.716 526.000,190.443 526.000 C 191.748 526.000,192.800 525.821,192.800 525.600 C 192.800 525.365,194.204 525.200,196.213 525.200 C 198.877 525.200,199.676 525.068,199.855 524.600 C 200.039 524.120,200.914 524.000,204.219 524.000 C 206.543 524.000,208.461 523.825,208.600 523.600 C 208.736 523.380,210.102 523.200,211.636 523.200 C 213.746 523.200,214.481 523.054,214.655 522.600 C 214.945 521.846,253.118 521.678,253.867 522.427 C 254.101 522.661,256.657 522.959,259.547 523.087 C 262.436 523.216,264.800 523.474,264.800 523.660 C 264.800 523.847,265.948 524.000,267.351 524.000 C 269.131 524.000,270.053 524.181,270.400 524.600 C 270.739 525.009,271.647 525.200,273.249 525.200 C 274.550 525.200,275.600 525.379,275.600 525.600 C 275.600 525.820,276.575 526.000,277.767 526.000 C 279.050 526.000,279.996 526.188,280.087 526.462 C 280.186 526.757,281.794 526.993,284.521 527.115 C 286.874 527.219,288.800 527.461,288.800 527.652 C 288.800 527.844,289.623 528.000,290.629 528.000 C 291.721 528.000,292.699 528.242,293.057 528.600 C 293.407 528.950,294.385 529.200,295.405 529.200 C 296.366 529.200,297.264 529.380,297.400 529.600 C 297.536 529.820,298.697 530.000,299.981 530.000 C 301.686 530.000,302.376 530.162,302.545 530.600 C 302.710 531.032,303.386 531.200,304.954 531.200 C 306.306 531.200,307.195 531.384,307.295 531.685 C 307.385 531.955,308.596 532.294,310.028 532.450 C 316.740 533.180,317.822 533.364,318.321 533.864 C 318.616 534.159,319.374 534.400,320.005 534.400 C 320.636 534.400,321.264 534.580,321.400 534.800 C 321.536 535.020,322.432 535.200,323.390 535.200 C 324.352 535.200,325.202 535.407,325.287 535.662 C 325.372 535.915,326.332 536.262,327.421 536.432 C 328.509 536.601,330.175 536.869,331.122 537.026 L 332.843 537.311 332.522 536.156 C 331.872 533.822,332.166 531.960,333.344 530.947 C 334.357 530.075,334.379 530.000,333.614 530.000 C 332.379 530.000,331.770 528.389,332.460 526.945 C 333.141 525.520,337.081 525.024,338.271 526.214 C 338.974 526.917,339.542 533.783,339.057 535.717 C 338.678 537.224,336.813 538.337,336.523 537.229 C 336.304 536.390,335.600 536.063,335.600 536.800 C 335.600 537.020,335.024 537.200,334.320 537.200 C 333.304 537.200,333.142 537.302,333.534 537.694 C 334.363 538.523,342.727 538.655,343.038 537.844 C 343.174 537.490,343.518 537.200,343.803 537.200 C 344.774 537.200,347.140 534.457,346.914 533.593 C 346.640 532.545,348.340 533.076,348.981 534.239 C 349.504 535.188,351.622 537.200,352.099 537.200 C 352.294 537.200,353.043 537.650,353.764 538.200 C 354.486 538.750,355.554 539.200,356.138 539.200 C 356.722 539.200,357.200 539.380,357.200 539.600 C 357.200 539.820,357.650 540.000,358.200 540.000 C 358.750 540.000,359.200 539.820,359.200 539.600 C 359.200 539.380,359.646 539.200,360.191 539.200 C 360.802 539.200,361.429 538.823,361.827 538.216 C 362.181 537.674,362.841 537.114,363.294 536.970 C 364.360 536.632,366.400 534.541,366.400 533.786 C 366.400 533.464,366.580 533.200,366.800 533.200 C 367.020 533.200,367.200 532.868,367.200 532.461 C 367.200 532.055,367.483 531.156,367.828 530.464 C 368.638 528.840,368.527 516.774,367.700 516.499 C 367.402 516.400,367.200 515.629,367.200 514.590 C 367.200 513.632,367.020 512.736,366.800 512.600 C 366.580 512.464,366.400 512.016,366.400 511.605 C 366.400 511.194,366.130 510.587,365.800 510.257 C 365.470 509.927,365.200 509.029,365.200 508.261 C 365.200 506.942,364.152 504.357,363.500 504.067 C 363.335 503.993,363.200 503.675,363.200 503.359 C 363.200 503.043,362.750 502.071,362.200 501.200 C 361.650 500.329,361.200 499.333,361.200 498.988 C 361.200 498.113,360.061 496.000,359.590 496.000 C 359.375 496.000,359.200 495.544,359.200 494.987 C 359.200 494.431,358.930 493.871,358.600 493.745 C 358.270 493.618,358.000 493.174,358.000 492.757 C 358.000 492.341,357.820 492.000,357.600 492.000 C 357.380 492.000,357.200 491.634,357.200 491.187 C 357.200 490.741,356.930 490.271,356.600 490.145 C 356.230 490.003,356.000 489.395,356.000 488.557 C 356.000 487.811,355.820 487.200,355.600 487.200 C 355.380 487.200,355.200 486.744,355.200 486.187 C 355.200 485.631,354.930 485.071,354.600 484.945 C 354.270 484.818,354.000 484.384,354.000 483.981 C 354.000 483.577,353.820 483.136,353.600 483.000 C 353.380 482.864,353.200 482.398,353.200 481.964 C 353.200 481.530,352.930 481.071,352.600 480.945 C 352.262 480.815,352.000 480.219,352.000 479.581 C 352.000 478.957,351.820 478.336,351.600 478.200 C 351.380 478.064,351.200 477.445,351.200 476.825 C 351.200 476.205,350.930 475.474,350.600 475.200 C 350.270 474.926,350.000 474.285,350.000 473.775 C 350.000 473.265,349.820 472.736,349.600 472.600 C 349.380 472.464,349.200 471.908,349.200 471.364 C 349.200 470.820,348.930 470.271,348.600 470.145 C 348.258 470.013,348.000 469.417,348.000 468.757 C 348.000 468.121,347.820 467.600,347.600 467.600 C 347.380 467.600,347.200 466.713,347.200 465.629 C 347.200 464.410,346.971 463.428,346.600 463.057 C 346.270 462.727,346.000 461.825,346.000 461.052 C 346.000 460.279,345.820 459.536,345.600 459.400 C 345.380 459.264,345.200 458.825,345.200 458.425 C 345.200 458.025,344.930 457.474,344.600 457.200 C 344.270 456.926,344.000 456.285,344.000 455.775 C 344.000 455.265,343.820 454.736,343.600 454.600 C 343.380 454.464,343.200 453.836,343.200 453.205 C 343.200 452.574,342.930 451.787,342.600 451.457 C 342.266 451.123,342.000 450.145,342.000 449.252 C 342.000 448.369,341.820 447.536,341.600 447.400 C 341.380 447.264,341.200 446.726,341.200 446.205 C 341.200 445.684,340.930 444.987,340.600 444.657 C 340.270 444.327,340.000 443.605,340.000 443.052 C 340.000 442.499,339.820 441.936,339.600 441.800 C 339.380 441.664,339.199 441.158,339.198 440.676 C 339.196 440.194,338.926 439.284,338.598 438.654 C 338.269 438.024,338.000 437.079,338.000 436.554 C 338.000 436.029,337.844 435.600,337.653 435.600 C 337.462 435.600,337.218 434.240,337.111 432.579 C 337.005 430.917,336.711 429.351,336.459 429.099 C 336.206 428.846,336.000 427.956,336.000 427.120 C 336.000 426.284,335.820 425.600,335.600 425.600 C 335.380 425.600,335.200 424.722,335.200 423.649 C 335.200 421.230,334.551 420.605,332.192 420.750 C 331.236 420.809,330.124 420.681,329.721 420.465 C 329.202 420.187,328.764 420.237,328.218 420.636 C 327.142 421.423,326.637 421.348,325.273 420.200 C 323.836 418.991,323.600 418.963,323.600 420.000 C 323.600 420.681,323.333 420.800,321.814 420.800 C 319.204 420.800,319.153 420.592,319.231 410.200 C 319.306 400.241,319.300 400.262,321.872 400.474 L 323.400 400.600 323.517 403.710 L 323.634 406.821 324.938 405.438 C 326.559 403.720,327.964 403.324,329.581 404.131 C 330.680 404.679,331.371 404.400,330.400 403.800 C 330.180 403.664,330.000 402.865,330.000 402.025 C 330.000 401.156,329.742 400.284,329.400 400.000 C 329.070 399.726,328.800 398.905,328.800 398.175 C 328.800 397.445,328.620 396.736,328.400 396.600 C 328.180 396.464,328.000 395.318,328.000 394.053 C 328.000 392.650,327.771 391.450,327.413 390.976 C 327.090 390.549,326.820 389.716,326.813 389.124 C 326.806 388.532,326.620 387.936,326.400 387.800 C 326.180 387.664,326.000 386.775,326.000 385.825 C 326.000 384.778,325.764 383.902,325.400 383.600 C 325.017 383.282,324.800 382.397,324.800 381.151 C 324.800 380.078,324.620 379.200,324.400 379.200 C 324.180 379.200,324.000 378.313,324.000 377.229 C 324.000 376.010,323.771 375.028,323.400 374.657 C 322.980 374.237,322.800 373.210,322.800 371.229 C 322.800 369.610,322.629 368.400,322.400 368.400 C 322.180 368.400,322.000 367.603,322.000 366.629 C 322.000 365.587,321.753 364.610,321.400 364.257 C 321.026 363.883,320.800 362.901,320.800 361.652 C 320.800 360.549,320.620 359.536,320.400 359.400 C 320.180 359.264,319.999 358.488,319.998 357.676 C 319.996 356.864,319.726 355.684,319.398 355.054 C 319.069 354.424,318.800 352.950,318.800 351.778 C 318.800 350.606,318.620 349.536,318.400 349.400 C 318.180 349.264,318.000 348.443,318.000 347.576 C 318.000 346.442,317.832 346.000,317.400 346.000 C 316.933 346.000,316.800 345.467,316.800 343.600 C 316.800 342.267,316.622 341.200,316.400 341.200 C 316.180 341.200,316.000 340.493,316.000 339.629 C 316.000 338.764,315.730 337.787,315.400 337.457 C 315.026 337.083,314.800 336.101,314.800 334.852 C 314.800 333.749,314.620 332.736,314.400 332.600 C 314.180 332.464,314.000 331.356,314.000 330.137 C 314.000 328.918,313.740 327.354,313.423 326.660 C 313.106 325.967,312.758 324.320,312.650 323.000 C 312.285 318.551,311.555 313.803,311.176 313.420 C 310.969 313.211,310.800 311.827,310.800 310.344 C 310.800 308.861,310.620 307.536,310.400 307.400 C 309.728 306.985,309.901 302.524,310.600 302.255 C 310.930 302.129,311.200 301.659,311.200 301.213 C 311.200 300.766,311.380 300.400,311.600 300.400 C 311.820 300.400,312.000 300.670,312.000 301.000 C 312.000 301.366,312.373 301.600,312.954 301.600 C 313.479 301.600,314.424 301.869,315.054 302.198 C 317.287 303.362,321.475 302.839,321.849 301.349 C 321.980 300.827,322.247 300.400,322.443 300.400 C 322.640 300.400,322.800 300.152,322.800 299.849 C 322.800 299.546,323.070 299.074,323.400 298.800 C 323.730 298.526,324.000 297.951,324.000 297.522 C 324.000 296.654,324.640 295.892,325.709 295.487 C 326.099 295.339,326.535 294.899,326.679 294.509 C 326.822 294.119,327.178 293.656,327.470 293.480 C 328.260 293.003,328.200 288.052,327.400 287.745 C 327.070 287.618,326.800 287.084,326.800 286.557 C 326.800 286.031,326.620 285.600,326.400 285.600 C 326.180 285.600,326.000 285.420,326.000 285.201 C 326.000 284.141,322.105 279.600,321.195 279.600 C 320.978 279.600,320.800 279.330,320.800 279.000 C 320.800 278.670,320.561 278.400,320.270 278.400 C 319.978 278.400,319.214 277.770,318.572 277.000 C 317.930 276.230,317.178 275.600,316.902 275.600 C 316.626 275.600,315.680 274.880,314.800 274.000 C 313.920 273.120,312.930 272.400,312.600 272.400 C 312.270 272.400,312.000 272.220,312.000 272.000 C 312.000 271.780,311.730 271.600,311.400 271.600 C 311.070 271.600,310.800 271.330,310.800 271.000 C 310.800 270.666,310.444 270.400,309.997 270.400 C 309.555 270.400,308.655 269.920,307.997 269.334 L 306.800 268.268 306.798 263.434 C 306.796 259.936,306.631 258.285,306.200 257.458 C 305.872 256.830,305.734 256.110,305.892 255.858 C 306.348 255.132,306.428 252.400,305.994 252.400 C 305.749 252.400,305.600 249.380,305.600 244.400 C 305.600 238.752,305.468 236.400,305.151 236.400 C 304.839 236.400,304.853 236.218,305.196 235.804 C 305.547 235.382,305.614 234.364,305.426 232.304 C 305.280 230.707,305.192 228.680,305.230 227.800 C 305.268 226.920,305.257 225.750,305.207 225.200 C 304.880 221.642,304.897 196.565,305.227 196.168 C 305.481 195.862,305.480 195.336,305.224 194.663 C 304.973 194.002,304.970 193.542,305.215 193.391 C 305.759 193.055,305.695 189.055,305.137 188.497 C 304.795 188.155,304.791 187.893,305.121 187.496 C 305.433 187.119,305.574 181.867,305.591 170.010 C 305.608 158.318,305.752 152.899,306.055 152.534 C 306.297 152.243,306.400 151.643,306.285 151.203 C 306.169 150.762,306.238 150.300,306.438 150.177 C 306.637 150.054,306.800 148.297,306.800 146.274 C 306.800 144.250,307.007 141.966,307.261 141.197 C 307.749 139.718,308.291 134.954,308.647 129.004 C 308.765 127.026,309.025 125.211,309.224 124.970 C 309.424 124.730,309.708 122.697,309.855 120.453 C 310.002 118.208,310.275 116.277,310.461 116.162 C 310.647 116.047,310.800 114.905,310.800 113.625 C 310.800 112.345,311.070 110.651,311.400 109.862 C 311.739 109.051,312.000 107.211,312.000 105.636 C 312.000 104.102,312.180 102.736,312.400 102.600 C 312.620 102.464,312.800 101.139,312.800 99.656 C 312.800 98.173,312.994 96.766,313.230 96.530 C 313.467 96.293,313.812 93.332,313.997 89.950 C 314.449 81.727,315.133 79.200,316.909 79.200 C 317.303 79.200,317.729 78.930,317.855 78.600 C 317.982 78.270,318.516 78.000,319.043 78.000 C 319.569 78.000,320.000 77.820,320.000 77.600 C 320.000 77.380,320.437 77.200,320.971 77.200 C 321.506 77.200,322.213 76.930,322.543 76.600 C 322.873 76.270,323.516 76.000,323.971 76.000 C 324.427 76.000,324.800 75.808,324.800 75.573 C 324.800 75.338,325.130 75.251,325.533 75.379 C 325.987 75.523,326.543 75.305,326.995 74.806 C 327.396 74.363,327.876 74.000,328.062 74.000 C 328.248 74.000,328.760 73.640,329.200 73.200 C 329.640 72.760,330.377 72.400,330.837 72.400 C 331.338 72.400,331.759 72.079,331.884 71.600 C 331.999 71.160,332.387 70.794,332.747 70.787 C 333.573 70.771,334.800 69.856,334.800 69.256 C 334.800 69.005,335.209 68.800,335.709 68.800 C 336.338 68.800,336.851 68.368,337.372 67.400 C 337.787 66.630,338.258 66.000,338.420 66.000 C 338.582 66.000,338.827 65.707,338.964 65.350 C 339.191 64.757,339.130 64.754,338.276 65.313 C 337.625 65.740,336.922 65.842,335.969 65.647 L 334.600 65.367 334.600 57.384 L 334.600 49.400 338.200 49.339 C 340.904 49.293,341.968 49.427,342.476 49.878 C 343.077 50.414,343.251 50.410,344.065 49.840 C 346.028 48.464,348.171 49.713,348.078 52.178 C 348.030 53.459,348.108 53.608,348.611 53.191 C 348.935 52.922,349.200 52.274,349.200 51.751 C 349.200 51.228,349.380 50.800,349.600 50.800 C 349.820 50.800,350.000 50.607,350.000 50.371 C 350.000 50.136,350.270 49.673,350.600 49.343 C 350.930 49.013,351.200 48.126,351.200 47.371 C 351.200 46.617,351.380 46.000,351.600 46.000 C 351.820 46.000,352.000 45.730,352.000 45.400 C 352.000 45.070,352.193 44.800,352.429 44.800 C 352.982 44.800,354.000 43.782,354.000 43.229 C 354.000 42.993,354.270 42.800,354.600 42.800 C 354.930 42.800,355.200 42.608,355.200 42.373 C 355.200 42.138,355.830 41.352,356.600 40.626 C 357.370 39.900,358.000 39.184,358.000 39.036 C 358.000 38.729,358.526 38.073,360.100 36.418 C 360.705 35.782,361.200 35.111,361.200 34.927 C 361.200 34.743,361.650 34.107,362.200 33.513 C 362.750 32.920,363.200 32.247,363.200 32.017 C 363.200 31.788,363.401 31.600,363.647 31.600 C 363.911 31.600,364.013 31.180,363.897 30.572 C 363.759 29.853,363.925 29.404,364.450 29.076 C 364.863 28.818,365.200 28.458,365.200 28.275 C 365.200 27.589,366.364 26.811,367.016 27.062 C 367.871 27.390,367.464 25.672,366.508 24.918 C 366.139 24.627,365.986 24.098,366.121 23.580 C 366.677 21.454,362.487 20.590,360.400 22.400 C 359.893 22.840,359.359 23.200,359.214 23.200 C 359.069 23.200,358.593 23.515,358.155 23.900 C 357.053 24.869,355.718 25.600,355.048 25.600 C 354.739 25.600,354.367 25.910,354.221 26.289 C 354.010 26.839,353.890 26.869,353.623 26.438 C 353.229 25.800,352.400 26.197,352.400 27.024 C 352.400 27.341,352.118 27.600,351.773 27.600 C 351.429 27.600,350.557 28.050,349.836 28.600 C 349.114 29.150,348.129 29.600,347.646 29.600 C 347.163 29.600,346.235 29.960,345.584 30.400 C 344.933 30.840,343.867 31.560,343.216 32.000 C 342.565 32.440,341.842 32.800,341.608 32.800 C 341.375 32.800,340.471 33.250,339.600 33.800 C 338.729 34.350,337.757 34.800,337.440 34.800 C 336.767 34.800,334.261 36.063,334.067 36.500 C 333.993 36.665,333.513 36.800,333.000 36.800 C 332.487 36.800,332.004 36.988,331.927 37.218 C 331.788 37.637,331.059 37.715,329.200 37.510 C 328.438 37.426,328.228 37.567,328.318 38.100 C 328.408 38.639,328.155 38.800,327.218 38.800 C 326.548 38.800,326.000 38.980,326.000 39.200 C 326.000 39.420,325.550 39.600,325.000 39.600 C 324.450 39.600,324.000 39.420,324.000 39.200 C 324.000 38.980,324.180 38.800,324.400 38.800 C 324.620 38.800,324.800 37.846,324.800 36.680 C 324.800 35.514,325.014 34.346,325.277 34.083 C 325.549 33.811,325.824 32.017,325.919 29.903 C 326.010 27.867,326.246 26.029,326.442 25.820 C 328.135 24.021,325.973 16.826,323.729 16.787 C 323.328 16.780,322.651 16.510,322.224 16.187 C 321.796 15.864,320.796 15.600,320.000 15.600 C 319.204 15.600,318.204 15.864,317.776 16.187 M323.517 48.500 C 323.608 50.931,324.400 53.249,324.400 51.086 C 324.400 49.544,330.048 48.502,331.681 49.743 C 333.113 50.831,333.629 53.633,333.511 59.686 L 333.400 65.400 331.646 65.526 C 330.681 65.595,329.711 65.471,329.491 65.251 C 329.225 64.985,328.900 65.043,328.517 65.426 C 327.710 66.233,326.285 66.139,325.091 65.200 C 323.867 64.237,323.600 64.205,323.600 65.021 C 323.600 65.519,323.183 65.618,321.500 65.521 L 319.400 65.400 319.400 55.685 C 319.400 44.924,319.356 45.098,322.000 45.296 L 323.400 45.400 323.517 48.500 M317.478 50.165 L 318.600 51.129 318.600 58.265 L 318.600 65.400 316.200 65.526 C 310.852 65.807,310.902 65.813,310.043 64.782 C 307.996 62.321,310.609 55.200,313.560 55.200 C 313.802 55.200,314.000 55.125,314.000 55.033 C 314.000 54.941,314.109 54.581,314.243 54.233 C 314.376 53.885,314.286 53.600,314.043 53.600 C 313.799 53.600,313.600 53.867,313.600 54.192 C 313.600 55.986,309.443 55.447,309.269 53.631 C 308.907 49.830,314.393 47.513,317.478 50.165 M327.579 54.439 C 327.216 55.118,326.834 55.249,325.573 55.129 C 324.521 55.029,323.949 55.156,323.808 55.523 C 323.443 56.475,323.585 59.200,324.000 59.200 C 324.220 59.200,324.400 59.056,324.400 58.881 C 324.400 58.467,327.273 55.529,328.223 54.971 C 329.181 54.409,329.431 53.600,328.647 53.600 C 328.307 53.600,327.826 53.977,327.579 54.439 M338.621 54.959 C 338.135 57.242,338.659 63.516,339.397 64.255 C 339.729 64.586,340.000 64.664,340.000 64.429 C 340.000 64.193,340.270 64.000,340.600 64.000 C 340.930 64.000,341.200 63.708,341.200 63.351 C 341.200 62.834,341.084 62.798,340.628 63.176 C 339.980 63.715,339.687 62.351,339.216 56.600 C 338.972 53.629,338.930 53.511,338.621 54.959 M343.702 56.761 C 343.842 58.804,343.764 60.076,343.479 60.361 C 343.238 60.602,343.180 60.800,343.351 60.800 C 344.010 60.800,346.000 58.420,346.000 57.631 C 346.000 57.159,346.259 56.800,346.600 56.800 C 346.973 56.800,347.200 56.422,347.200 55.800 C 347.200 55.250,347.410 54.800,347.667 54.800 C 347.923 54.800,347.999 54.665,347.834 54.501 C 347.669 54.336,347.294 54.530,347.000 54.932 C 346.402 55.750,345.096 55.347,344.660 54.211 C 343.982 52.446,343.495 53.743,343.702 56.761 M328.528 59.368 C 327.668 60.349,327.713 62.000,328.600 62.000 C 329.033 62.000,329.200 61.556,329.200 60.400 C 329.200 58.622,329.193 58.611,328.528 59.368 M313.600 60.800 C 313.600 61.460,313.780 62.000,314.000 62.000 C 314.220 62.000,314.400 61.460,314.400 60.800 C 314.400 60.140,314.220 59.600,314.000 59.600 C 313.780 59.600,313.600 60.140,313.600 60.800 M201.859 61.106 C 203.555 62.193,202.611 63.400,200.094 63.361 C 198.716 63.340,197.508 63.242,197.410 63.144 C 196.964 62.698,197.768 61.228,198.541 61.077 C 200.017 60.788,201.381 60.800,201.859 61.106 M65.758 62.111 C 66.401 63.147,65.534 63.534,62.846 63.412 C 59.383 63.254,59.557 63.331,60.081 62.183 C 60.670 60.890,64.967 60.836,65.758 62.111 M290.069 85.716 C 289.834 86.000,289.597 87.620,289.542 89.316 C 289.488 91.012,289.299 92.400,289.122 92.400 C 288.945 92.400,288.800 94.166,288.800 96.324 C 288.800 99.154,288.636 100.463,288.213 101.024 C 287.890 101.451,287.620 102.554,287.613 103.476 C 287.606 104.398,287.420 105.264,287.200 105.400 C 286.980 105.536,286.794 106.492,286.787 107.524 C 286.780 108.556,286.510 109.749,286.187 110.176 C 285.864 110.604,285.600 111.718,285.600 112.653 C 285.600 113.588,285.420 114.464,285.200 114.600 C 284.980 114.736,284.800 115.839,284.800 117.052 C 284.800 118.479,284.588 119.469,284.200 119.857 C 283.775 120.282,283.600 121.318,283.600 123.405 C 283.600 125.026,283.420 126.464,283.200 126.600 C 282.980 126.736,282.800 127.917,282.800 129.224 C 282.800 131.069,282.666 131.600,282.200 131.600 C 281.733 131.600,281.600 132.133,281.600 134.000 C 281.600 135.333,281.422 136.400,281.200 136.400 C 280.975 136.400,280.800 137.519,280.800 138.957 C 280.800 140.861,280.647 141.573,280.200 141.745 C 279.766 141.911,279.600 142.593,279.600 144.214 C 279.600 145.445,279.429 146.772,279.220 147.162 C 279.011 147.553,278.714 149.977,278.561 152.549 C 278.407 155.122,278.128 157.321,277.941 157.437 C 277.753 157.553,277.600 159.066,277.600 160.800 C 277.600 162.534,277.431 164.057,277.225 164.184 C 277.019 164.312,276.849 164.727,276.846 165.108 C 276.843 165.489,276.638 167.780,276.391 170.200 C 276.144 172.620,275.853 176.666,275.745 179.190 C 275.634 181.788,275.347 184.023,275.085 184.339 C 274.387 185.180,273.963 199.787,273.764 229.900 C 273.568 259.480,273.903 256.590,270.852 255.059 C 269.823 254.542,269.373 254.490,268.952 254.840 C 268.549 255.174,268.400 255.177,268.400 254.849 C 268.400 254.602,267.792 254.400,267.049 254.400 C 266.306 254.400,265.474 254.130,265.200 253.800 C 264.926 253.470,264.184 253.200,263.551 253.200 C 262.918 253.200,262.400 253.020,262.400 252.800 C 262.400 252.580,261.757 252.400,260.971 252.400 C 260.186 252.400,259.273 252.130,258.943 251.800 C 258.546 251.403,257.549 251.200,255.995 251.200 C 254.704 251.200,253.536 251.020,253.400 250.800 C 253.264 250.580,252.263 250.400,251.176 250.400 C 249.686 250.400,249.200 250.252,249.200 249.800 C 249.200 249.340,248.692 249.200,247.024 249.200 C 245.827 249.200,244.736 249.020,244.600 248.800 C 244.464 248.580,243.058 248.394,241.476 248.387 C 239.584 248.379,238.334 248.174,237.824 247.787 C 237.215 247.327,235.640 247.200,230.524 247.200 C 226.441 247.200,224.000 247.050,224.000 246.800 C 224.000 246.550,221.548 246.400,217.443 246.400 C 211.888 246.400,210.849 246.305,210.648 245.780 C 210.296 244.863,184.172 245.075,183.597 246.000 C 183.289 246.496,183.084 246.513,182.412 246.097 C 181.932 245.799,181.600 245.758,181.600 245.997 C 181.600 246.238,180.161 246.400,178.024 246.400 C 176.057 246.400,174.336 246.580,174.200 246.800 C 174.056 247.033,171.812 247.200,168.825 247.200 C 164.756 247.200,163.595 247.324,163.200 247.800 C 162.854 248.217,161.933 248.400,160.175 248.400 C 158.785 248.400,157.536 248.580,157.400 248.800 C 157.264 249.020,156.285 249.200,155.225 249.200 C 154.000 249.200,153.117 249.419,152.800 249.800 C 152.472 250.196,151.578 250.400,150.175 250.400 C 149.005 250.400,147.936 250.580,147.800 250.800 C 147.664 251.020,146.298 251.200,144.764 251.200 C 142.654 251.200,141.919 251.346,141.745 251.800 C 141.583 252.220,140.928 252.400,139.557 252.400 C 138.481 252.400,137.600 252.580,137.600 252.800 C 137.600 253.020,136.964 253.200,136.187 253.200 C 135.301 253.200,134.689 253.423,134.545 253.800 C 134.388 254.207,133.750 254.400,132.557 254.400 C 131.591 254.400,130.800 254.586,130.800 254.812 C 130.800 255.542,125.821 255.053,125.678 254.310 C 125.611 253.960,125.746 253.557,125.978 253.414 C 126.210 253.270,126.400 252.443,126.400 251.576 C 126.400 250.709,126.583 250.000,126.806 250.000 C 127.030 250.000,127.212 249.505,127.212 248.900 C 127.211 246.792,127.683 244.000,128.040 244.000 C 128.238 244.000,128.400 241.941,128.400 239.424 C 128.400 236.907,128.570 234.742,128.777 234.614 C 129.666 234.065,130.482 217.377,129.782 214.067 C 129.602 213.217,129.692 212.376,130.031 211.741 C 130.379 211.092,130.423 210.653,130.159 210.474 C 129.929 210.318,129.749 208.300,129.741 205.800 C 129.703 193.034,129.602 190.860,129.025 190.282 C 128.620 189.878,128.391 188.360,128.249 185.154 C 127.874 176.663,127.355 171.452,126.868 171.289 C 126.561 171.187,126.400 170.002,126.400 167.847 C 126.400 166.039,126.235 164.389,126.033 164.180 C 125.831 163.971,125.606 161.858,125.533 159.485 C 125.451 156.823,125.225 155.060,124.944 154.885 C 124.692 154.728,124.386 153.073,124.263 151.200 C 123.946 146.398,123.437 143.277,122.879 142.719 C 122.615 142.455,122.400 141.207,122.400 139.944 C 122.400 138.681,122.220 137.536,122.000 137.400 C 121.780 137.264,121.600 136.028,121.600 134.653 C 121.600 133.074,121.384 131.867,121.013 131.376 C 120.690 130.949,120.420 129.739,120.413 128.687 C 120.404 127.365,120.215 126.704,119.800 126.545 C 119.393 126.388,119.200 125.750,119.200 124.557 C 119.200 123.591,119.020 122.800,118.800 122.800 C 118.580 122.800,118.400 122.099,118.400 121.243 C 118.400 120.228,118.191 119.605,117.800 119.455 C 117.426 119.312,117.200 118.702,117.200 117.836 C 117.200 117.072,117.020 116.336,116.800 116.200 C 116.580 116.064,116.400 114.968,116.400 113.764 C 116.400 112.187,116.232 111.510,115.800 111.345 C 115.433 111.204,115.200 110.597,115.200 109.781 C 115.200 109.047,115.020 108.336,114.800 108.200 C 114.580 108.064,114.400 107.418,114.400 106.764 C 114.400 106.076,114.147 105.478,113.800 105.345 C 113.411 105.195,113.200 104.575,113.200 103.581 C 113.200 102.737,113.020 101.936,112.800 101.800 C 112.580 101.664,112.400 101.108,112.400 100.564 C 112.400 100.020,112.130 99.471,111.800 99.345 C 111.381 99.184,111.200 98.531,111.200 97.181 C 111.200 96.117,111.020 95.136,110.800 95.000 C 110.580 94.864,110.400 94.236,110.400 93.605 C 110.400 92.974,110.130 92.187,109.800 91.857 C 109.076 91.133,109.032 90.328,109.680 89.680 C 110.259 89.101,114.251 89.036,114.600 89.600 C 114.746 89.836,117.130 90.000,120.400 90.000 C 123.967 90.000,126.049 90.156,126.222 90.435 C 126.415 90.748,126.612 90.748,126.925 90.435 C 127.637 89.723,135.790 89.865,136.400 90.600 C 136.820 91.107,138.600 91.200,147.825 91.200 C 154.679 91.200,158.845 91.349,159.000 91.600 C 159.156 91.853,163.947 92.000,172.052 92.000 C 182.901 92.000,184.949 92.092,185.457 92.600 C 186.287 93.430,195.669 93.474,196.491 92.652 C 196.908 92.235,198.718 92.085,204.020 92.030 C 207.859 91.989,211.171 91.786,211.380 91.578 C 211.589 91.370,213.785 91.200,216.260 91.200 C 219.767 91.200,220.832 91.073,221.084 90.622 C 221.449 89.969,224.215 89.819,245.280 89.308 C 254.541 89.083,258.095 88.865,258.460 88.500 C 258.829 88.131,261.233 88.000,267.656 88.000 C 273.023 88.000,276.447 87.847,276.600 87.600 C 276.736 87.380,278.052 87.199,279.524 87.198 C 281.115 87.196,282.664 86.953,283.346 86.598 C 284.013 86.249,285.558 86.000,287.046 86.000 C 288.482 86.000,289.600 85.825,289.600 85.600 C 289.600 85.380,289.802 85.200,290.049 85.200 C 290.370 85.200,290.376 85.347,290.069 85.716 M127.000 256.000 C 127.136 256.220,126.877 256.400,126.424 256.400 C 125.971 256.400,125.600 256.220,125.600 256.000 C 125.600 255.780,125.859 255.600,126.176 255.600 C 126.493 255.600,126.864 255.780,127.000 256.000 M65.291 292.706 C 65.629 293.995,65.096 294.736,64.100 294.363 C 63.160 294.011,63.038 293.688,63.443 292.633 C 63.771 291.777,65.062 291.829,65.291 292.706 M317.156 404.707 C 317.720 405.128,318.302 405.906,318.451 406.436 C 318.792 407.656,318.883 419.320,318.557 420.167 C 318.271 420.913,315.994 421.034,315.301 420.341 C 314.955 419.995,314.592 420.044,313.835 420.541 C 309.866 423.141,307.263 415.972,310.896 412.446 C 311.829 411.541,312.729 410.800,312.896 410.800 C 313.063 410.800,313.200 410.620,313.200 410.400 C 313.200 410.180,312.300 410.000,311.200 410.000 L 309.200 410.000 309.200 408.562 C 309.200 404.547,313.895 402.272,317.156 404.707 M313.600 409.000 C 313.600 409.330,313.780 409.600,314.000 409.600 C 314.220 409.600,314.400 409.330,314.400 409.000 C 314.400 408.670,314.220 408.400,314.000 408.400 C 313.780 408.400,313.600 408.670,313.600 409.000 M327.721 409.180 C 327.562 409.787,327.106 409.986,325.659 410.080 L 323.800 410.200 323.678 412.100 C 323.533 414.360,323.666 414.409,325.203 412.658 C 325.851 411.920,327.014 410.885,327.788 410.358 C 329.265 409.352,329.642 408.400,328.563 408.400 C 328.212 408.400,327.833 408.751,327.721 409.180 M328.213 414.785 C 327.425 415.656,327.638 416.800,328.587 416.800 C 329.021 416.800,329.200 416.391,329.200 415.400 C 329.200 413.771,329.156 413.743,328.213 414.785 M313.600 415.624 C 313.600 416.337,313.767 416.744,314.000 416.600 C 314.220 416.464,314.400 415.913,314.400 415.376 C 314.400 414.839,314.220 414.400,314.000 414.400 C 313.780 414.400,313.600 414.951,313.600 415.624 M133.583 467.069 C 134.345 468.038,134.414 468.572,134.312 472.769 L 134.200 477.400 131.521 477.492 C 127.663 477.625,126.135 474.989,128.400 472.109 C 128.840 471.550,129.200 470.957,129.200 470.793 C 129.200 470.628,128.840 470.399,128.400 470.284 C 127.337 470.006,127.352 468.424,128.429 467.054 C 129.626 465.532,132.381 465.541,133.583 467.069 " stroke="none" fill="#ffffff" fill-rule="evenodd"></path><path id="path1" d="M320.659 46.274 C 320.517 46.417,320.400 50.733,320.400 55.867 L 320.400 65.200 321.800 65.200 C 323.144 65.200,323.201 65.140,323.237 63.700 C 323.292 61.509,323.143 46.608,323.066 46.556 C 322.662 46.288,320.857 46.076,320.659 46.274 M311.648 50.556 C 310.654 51.107,309.443 53.422,309.826 54.041 C 310.271 54.763,311.993 54.372,312.959 53.331 C 313.796 52.428,314.048 52.342,314.575 52.780 C 315.613 53.641,315.319 54.231,312.400 57.145 C 309.949 59.591,309.600 60.122,309.600 61.408 C 309.600 64.431,312.206 66.223,314.105 64.505 C 314.833 63.846,314.898 63.846,315.380 64.505 C 315.660 64.887,316.363 65.200,316.944 65.200 L 318.000 65.200 318.000 58.819 C 318.000 54.981,317.822 52.048,317.554 51.460 C 316.894 50.011,313.554 49.500,311.648 50.556 M325.945 50.605 C 324.973 51.134,324.148 53.614,324.746 54.212 C 325.316 54.783,327.045 54.320,327.405 53.500 C 327.987 52.173,329.367 52.316,329.529 53.720 C 329.623 54.544,329.381 55.057,328.615 55.660 C 325.122 58.408,324.628 59.135,324.614 61.556 C 324.594 64.805,327.069 66.626,328.620 64.505 C 329.102 63.846,329.167 63.846,329.895 64.505 C 330.318 64.887,331.099 65.200,331.631 65.201 L 332.600 65.201 332.400 58.233 C 332.290 54.400,332.110 51.184,332.000 51.086 C 330.681 49.914,327.659 49.674,325.945 50.605 M335.500 50.276 C 334.542 50.526,334.417 63.878,335.369 64.243 C 337.174 64.936,337.600 63.837,337.600 58.482 C 337.600 53.851,337.671 53.348,338.388 52.900 C 339.530 52.187,340.000 53.308,340.000 56.740 C 340.000 59.657,340.348 60.227,341.700 59.532 C 342.255 59.246,342.400 58.647,342.400 56.630 C 342.400 53.536,343.303 51.999,344.685 52.738 C 345.683 53.272,346.645 52.415,346.238 51.355 C 346.039 50.835,345.657 50.753,344.388 50.956 C 343.225 51.142,342.509 51.028,341.761 50.537 C 340.875 49.957,340.538 49.934,339.326 50.372 C 338.303 50.742,337.801 50.761,337.480 50.440 C 337.027 49.987,336.706 49.960,335.500 50.276 M315.520 59.831 C 315.671 61.373,314.499 62.966,313.496 62.582 C 312.700 62.276,312.554 60.408,313.227 59.149 C 313.905 57.882,315.372 58.318,315.520 59.831 M329.600 60.376 C 329.600 62.505,329.246 62.995,327.996 62.599 C 326.443 62.106,327.384 58.400,329.062 58.400 C 329.440 58.400,329.600 58.987,329.600 60.376 M320.493 410.500 L 320.600 419.800 321.858 419.922 C 323.422 420.074,323.449 419.860,323.283 408.900 L 323.167 401.200 321.776 401.200 L 320.385 401.200 320.493 410.500 M312.403 404.923 C 311.006 405.400,309.663 407.320,309.619 408.900 C 309.586 410.098,312.158 409.849,312.727 408.600 C 313.192 407.580,314.531 407.242,315.014 408.023 C 315.558 408.902,314.759 410.294,312.974 411.576 C 309.721 413.912,308.885 416.222,310.396 418.700 C 311.296 420.176,313.062 420.481,314.189 419.354 C 314.784 418.759,314.892 418.759,315.549 419.354 C 317.657 421.262,318.000 420.503,318.000 413.928 C 318.000 406.650,317.688 405.473,315.589 404.844 C 313.865 404.327,314.167 404.320,312.403 404.923 M326.800 404.950 C 324.460 405.967,323.813 409.600,325.972 409.600 C 326.883 409.600,327.173 409.400,327.272 408.700 C 327.364 408.056,327.712 407.764,328.500 407.673 C 329.347 407.576,329.600 407.334,329.600 406.619 C 329.600 405.288,328.092 404.389,326.800 404.950 M327.498 411.559 C 324.546 414.444,323.996 415.764,324.769 418.105 C 325.377 419.949,326.827 420.630,328.044 419.645 C 328.835 419.004,329.053 418.987,330.063 419.491 C 332.657 420.785,333.936 416.693,332.220 412.587 C 331.902 411.824,331.767 411.195,331.920 411.188 C 332.074 411.181,331.885 410.992,331.500 410.768 C 331.115 410.544,330.800 410.009,330.800 409.580 C 330.800 408.449,330.492 408.634,327.498 411.559 M329.600 415.236 C 329.600 417.373,328.910 418.121,327.795 417.196 C 326.936 416.483,327.064 414.796,328.058 413.738 C 329.218 412.503,329.600 412.874,329.600 415.236 M315.404 414.416 C 315.663 415.596,314.824 417.600,314.071 417.600 C 312.434 417.600,312.374 414.111,314.000 413.492 C 315.028 413.100,315.129 413.167,315.404 414.416 M129.500 467.103 C 128.824 467.523,128.400 468.135,128.400 468.693 C 128.400 469.747,129.047 469.862,130.021 468.981 C 130.639 468.422,130.768 468.425,131.364 469.021 C 131.975 469.632,131.893 469.793,130.211 471.274 C 127.438 473.715,127.762 478.319,130.600 476.800 C 131.384 476.380,131.691 476.377,132.181 476.784 C 133.747 478.084,134.823 472.505,133.766 468.569 C 133.299 466.829,131.139 466.087,129.500 467.103 M132.000 473.320 C 132.000 474.979,130.345 475.877,129.818 474.504 C 129.642 474.044,129.846 473.568,130.420 473.104 C 131.584 472.161,132.000 472.217,132.000 473.320 M333.500 526.557 C 332.542 527.284,332.577 528.800,333.551 528.800 C 333.964 528.800,334.526 528.530,334.800 528.200 C 335.378 527.504,336.240 527.417,336.611 528.018 C 336.988 528.628,335.900 530.093,334.234 531.218 C 332.918 532.106,332.789 532.354,332.889 533.800 L 333.000 535.400 335.700 535.518 L 338.400 535.637 338.400 531.480 C 338.400 526.309,336.432 524.331,333.500 526.557 M336.566 532.256 C 337.165 533.815,335.848 535.063,334.860 533.873 C 334.538 533.484,334.583 533.116,335.034 532.473 C 335.763 531.431,336.225 531.366,336.566 532.256 " stroke="none" fill="#ffffff" fill-rule="evenodd"></path><path id="path2" d="M334.548 57.600 C 334.548 59.910,334.614 60.855,334.695 59.700 C 334.776 58.545,334.776 56.655,334.695 55.500 C 334.614 54.345,334.548 55.290,334.548 57.600 M332.954 59.600 C 332.954 62.350,333.018 63.475,333.096 62.100 C 333.174 60.725,333.174 58.475,333.096 57.100 C 333.018 55.725,332.954 56.850,332.954 59.600 M342.137 60.132 C 341.951 60.457,341.350 60.787,340.800 60.865 C 339.994 60.980,339.932 61.061,340.480 61.284 C 341.208 61.579,343.202 60.272,342.737 59.804 C 342.592 59.659,342.322 59.806,342.137 60.132 M309.293 61.600 C 309.293 62.370,309.375 62.685,309.476 62.300 C 309.576 61.915,309.576 61.285,309.476 60.900 C 309.375 60.515,309.293 60.830,309.293 61.600 M200.000 62.600 C 199.312 62.993,199.203 63.176,199.651 63.186 C 200.009 63.194,200.526 62.930,200.800 62.600 C 201.409 61.866,201.284 61.866,200.000 62.600 M63.800 62.800 C 63.664 63.020,63.934 63.200,64.400 63.200 C 64.866 63.200,65.136 63.020,65.000 62.800 C 64.864 62.580,64.594 62.400,64.400 62.400 C 64.206 62.400,63.936 62.580,63.800 62.800 M321.300 65.476 C 321.685 65.576,322.315 65.576,322.700 65.476 C 323.085 65.375,322.770 65.293,322.000 65.293 C 321.230 65.293,320.915 65.375,321.300 65.476 M323.600 408.800 C 323.600 409.240,323.780 409.600,324.000 409.600 C 324.220 409.600,324.400 409.240,324.400 408.800 C 324.400 408.360,324.220 408.000,324.000 408.000 C 323.780 408.000,323.600 408.360,323.600 408.800 M334.983 528.428 C 334.837 528.663,334.332 529.012,333.859 529.203 C 333.273 529.439,333.203 529.557,333.638 529.575 C 333.989 529.589,334.602 529.240,335.000 528.800 C 335.398 528.360,335.617 528.000,335.486 528.000 C 335.354 528.000,335.128 528.193,334.983 528.428 M335.586 532.617 C 335.230 533.046,335.201 533.361,335.492 533.652 C 335.782 533.942,336.003 533.918,336.217 533.573 C 336.415 533.253,336.359 533.178,336.062 533.362 C 335.454 533.738,335.467 533.093,336.080 532.480 C 336.344 532.216,336.456 532.000,336.329 532.000 C 336.202 532.000,335.868 532.278,335.586 532.617 " stroke="none" fill="#ffffff" fill-rule="evenodd"></path><path id="path3" d="M320.480 46.080 C 320.129 46.431,320.024 49.084,320.089 55.980 L 320.178 65.400 320.389 55.800 L 320.600 46.200 321.943 46.331 C 322.828 46.418,323.195 46.316,323.019 46.031 C 322.662 45.453,321.077 45.483,320.480 46.080 M323.301 49.000 C 323.305 49.880,323.387 50.193,323.483 49.695 C 323.579 49.198,323.575 48.478,323.475 48.095 C 323.375 47.713,323.296 48.120,323.301 49.000 M311.500 50.229 C 309.962 51.063,310.117 51.367,311.672 50.563 C 312.595 50.085,313.498 49.970,314.972 50.143 C 316.337 50.302,316.804 50.254,316.400 49.996 C 315.501 49.421,312.748 49.552,311.500 50.229 M325.900 50.229 C 324.417 51.034,324.490 51.381,325.980 50.610 C 327.983 49.574,331.162 49.964,332.094 51.360 C 332.305 51.676,332.389 51.672,332.394 51.346 C 332.414 49.820,328.040 49.068,325.900 50.229 M334.800 50.032 C 334.800 50.300,335.239 50.367,335.962 50.208 C 336.628 50.062,337.235 50.134,337.386 50.377 C 337.529 50.609,337.952 50.799,338.324 50.798 C 338.752 50.796,338.579 50.576,337.854 50.198 C 336.520 49.501,334.800 49.408,334.800 50.032 M339.423 49.963 C 339.300 50.162,339.559 50.231,339.999 50.116 C 340.439 50.001,341.246 50.200,341.794 50.559 C 342.509 51.028,343.239 51.139,344.388 50.956 C 345.657 50.753,346.039 50.835,346.238 51.355 C 346.645 52.415,345.683 53.272,344.685 52.738 C 343.303 51.999,342.400 53.536,342.400 56.630 C 342.400 59.219,341.807 60.181,340.500 59.713 C 340.225 59.614,340.000 59.818,340.000 60.167 C 340.000 61.125,341.716 60.946,342.356 59.922 C 342.658 59.438,342.995 57.863,343.104 56.422 C 343.337 53.363,343.731 52.625,344.781 53.281 C 345.944 54.008,346.800 53.395,346.800 51.836 C 346.800 50.069,346.295 49.775,344.359 50.414 C 343.003 50.861,342.709 50.842,342.070 50.263 C 341.278 49.546,339.785 49.377,339.423 49.963 M323.334 53.600 C 323.334 55.250,323.405 55.925,323.491 55.100 C 323.578 54.275,323.578 52.925,323.491 52.100 C 323.405 51.275,323.334 51.950,323.334 53.600 M324.316 52.791 C 324.142 53.977,324.582 54.806,325.380 54.794 C 325.611 54.791,325.531 54.618,325.203 54.410 C 324.830 54.175,324.653 53.574,324.733 52.816 C 324.897 51.248,324.546 51.226,324.316 52.791 M312.875 53.400 C 312.397 53.950,312.178 54.400,312.389 54.400 C 312.599 54.400,312.976 54.019,313.225 53.553 C 313.930 52.235,315.081 53.490,314.417 54.853 C 313.979 55.753,313.986 55.762,314.578 55.024 C 315.325 54.091,315.362 53.522,314.720 52.880 C 314.051 52.211,313.863 52.264,312.875 53.400 M318.163 58.800 C 318.163 62.430,318.223 63.915,318.298 62.100 C 318.372 60.285,318.372 57.315,318.298 55.500 C 318.223 53.685,318.163 55.170,318.163 58.800 M327.606 52.993 C 327.320 53.337,327.202 53.735,327.343 53.876 C 327.484 54.018,327.600 53.944,327.600 53.713 C 327.600 53.168,329.104 52.772,329.351 53.252 C 329.455 53.455,329.494 53.391,329.437 53.110 C 329.283 52.348,328.199 52.279,327.606 52.993 M332.470 58.476 C 332.431 61.928,332.535 64.837,332.700 64.939 C 332.865 65.041,332.951 62.937,332.891 60.263 C 332.716 52.447,332.545 51.722,332.470 58.476 M338.300 52.957 C 337.698 53.413,337.600 54.197,337.600 58.530 C 337.600 63.833,337.170 64.935,335.369 64.243 C 335.056 64.123,334.800 64.199,334.800 64.413 C 334.800 64.811,335.349 64.951,336.400 64.820 C 337.708 64.656,338.000 63.518,338.000 58.573 C 338.000 53.823,338.413 52.209,339.401 53.103 C 339.581 53.267,339.599 53.175,339.441 52.900 C 339.096 52.302,339.167 52.299,338.300 52.957 M339.734 56.400 C 339.734 58.050,339.805 58.725,339.891 57.900 C 339.978 57.075,339.978 55.725,339.891 54.900 C 339.805 54.075,339.734 54.750,339.734 56.400 M327.000 56.591 C 326.120 57.349,325.515 57.977,325.656 57.985 C 325.797 57.993,326.607 57.374,327.456 56.609 C 329.457 54.807,329.087 54.792,327.000 56.591 M311.047 58.001 C 310.251 58.882,309.600 59.728,309.600 59.881 C 309.600 60.035,309.735 59.989,309.901 59.780 C 310.067 59.571,310.822 58.725,311.580 57.900 C 312.337 57.075,312.853 56.400,312.725 56.400 C 312.597 56.400,311.842 57.121,311.047 58.001 M313.227 59.149 C 312.992 59.588,312.825 60.544,312.854 61.274 C 312.897 62.319,312.942 62.388,313.066 61.600 C 313.422 59.344,313.644 58.800,314.208 58.800 C 315.104 58.800,315.013 61.836,314.100 62.368 C 313.715 62.592,313.621 62.781,313.891 62.788 C 314.677 62.807,315.670 60.952,315.529 59.726 C 315.367 58.313,313.875 57.939,313.227 59.149 M323.381 61.800 C 323.379 63.780,323.438 64.721,323.513 63.892 C 323.588 63.062,323.818 62.488,324.025 62.615 C 324.231 62.743,324.400 62.387,324.400 61.824 C 324.400 61.261,324.231 60.800,324.025 60.800 C 323.819 60.800,323.591 60.215,323.519 59.500 C 323.446 58.785,323.384 59.820,323.381 61.800 M327.834 59.163 C 327.375 59.670,327.199 60.373,327.308 61.263 L 327.472 62.600 327.536 61.231 C 327.571 60.479,327.898 59.534,328.262 59.131 C 328.626 58.729,328.834 58.400,328.724 58.400 C 328.614 58.400,328.213 58.743,327.834 59.163 M200.600 62.800 C 200.464 63.020,200.734 63.200,201.200 63.200 C 201.666 63.200,201.936 63.020,201.800 62.800 C 201.664 62.580,201.394 62.400,201.200 62.400 C 201.006 62.400,200.736 62.580,200.600 62.800 M320.267 401.067 C 320.120 401.213,320.000 405.407,320.000 410.387 C 320.000 420.212,320.050 420.439,322.180 420.347 C 323.391 420.295,323.389 420.293,322.000 420.047 L 320.600 419.800 320.493 410.525 L 320.385 401.249 321.893 401.092 L 323.400 400.934 321.967 400.867 C 321.178 400.830,320.413 400.920,320.267 401.067 M323.314 403.400 C 323.317 404.500,323.395 404.903,323.487 404.295 C 323.579 403.686,323.577 402.786,323.482 402.295 C 323.387 401.803,323.311 402.300,323.314 403.400 M312.800 404.441 C 312.328 404.778,312.413 404.822,313.195 404.647 C 317.032 403.791,318.000 405.660,318.000 413.928 L 318.000 420.000 317.049 420.000 C 316.526 420.000,315.874 419.730,315.600 419.400 C 315.006 418.684,314.400 418.617,314.400 419.267 C 314.400 419.523,314.520 419.613,314.668 419.466 C 314.815 419.319,315.250 419.483,315.635 419.831 C 317.986 421.960,319.714 412.137,317.948 406.675 C 317.270 404.576,314.372 403.318,312.800 404.441 M326.800 404.600 C 326.250 404.914,325.980 405.175,326.200 405.180 C 326.420 405.184,326.855 405.026,327.167 404.829 C 327.995 404.305,329.600 405.487,329.600 406.619 C 329.600 407.326,329.346 407.577,328.531 407.673 C 327.943 407.743,327.416 408.030,327.361 408.310 C 327.305 408.591,327.351 408.636,327.463 408.410 C 327.575 408.185,328.175 408.000,328.796 408.000 C 330.215 408.000,330.046 409.193,328.451 410.442 C 326.049 412.323,324.402 414.075,324.432 414.716 C 324.457 415.261,324.505 415.278,324.668 414.800 C 324.837 414.305,330.320 408.800,330.644 408.800 C 330.699 408.800,330.802 409.191,330.872 409.669 C 331.096 411.187,332.075 411.070,331.929 409.543 C 331.851 408.732,331.602 408.240,331.300 408.300 C 330.987 408.363,330.800 407.941,330.800 407.171 C 330.800 405.907,330.413 405.366,328.890 404.500 C 327.844 403.905,328.032 403.896,326.800 404.600 M324.823 406.172 C 324.562 406.487,324.420 407.432,324.507 408.272 L 324.666 409.800 324.733 408.180 C 324.770 407.289,325.016 406.344,325.280 406.080 C 325.544 405.816,325.656 405.600,325.529 405.600 C 325.402 405.600,325.084 405.857,324.823 406.172 M323.324 408.200 C 323.326 409.520,323.401 410.012,323.490 409.293 C 323.579 408.574,323.577 407.494,323.486 406.893 C 323.395 406.292,323.322 406.880,323.324 408.200 M312.782 408.434 C 312.536 408.893,312.447 409.380,312.583 409.517 C 312.720 409.653,312.936 409.368,313.063 408.883 C 313.338 407.831,314.800 407.661,314.800 408.681 C 314.800 409.055,314.215 409.982,313.500 410.740 L 312.200 412.117 313.514 411.173 C 314.831 410.227,315.503 408.814,315.014 408.023 C 314.573 407.310,313.253 407.553,312.782 408.434 M328.028 413.771 C 326.594 415.296,327.746 418.814,329.202 417.358 C 329.501 417.059,329.357 416.943,328.713 416.967 C 327.997 416.993,327.772 416.755,327.670 415.865 C 327.516 414.519,328.735 412.857,329.264 413.691 C 329.497 414.056,329.589 414.066,329.594 413.724 C 329.606 412.810,328.910 412.831,328.028 413.771 M314.000 413.492 C 312.374 414.111,312.434 417.600,314.071 417.600 C 314.824 417.600,315.663 415.596,315.404 414.416 C 315.129 413.167,315.028 413.100,314.000 413.492 M323.365 416.600 C 323.363 418.360,323.426 419.121,323.505 418.292 C 323.585 417.462,323.818 416.888,324.025 417.015 C 324.231 417.143,324.400 416.866,324.400 416.400 C 324.400 415.934,324.232 415.657,324.026 415.784 C 323.820 415.911,323.588 415.427,323.510 414.708 C 323.432 413.988,323.366 414.840,323.365 416.600 M314.894 414.715 C 315.157 415.721,314.500 417.300,313.900 417.102 C 313.339 416.917,313.022 415.442,313.356 414.571 C 313.665 413.766,314.670 413.860,314.894 414.715 M324.432 417.867 C 324.300 419.807,326.632 421.162,328.106 420.002 C 328.649 419.576,329.236 419.355,329.411 419.513 C 329.585 419.671,329.597 419.572,329.436 419.293 C 329.213 418.905,328.909 418.971,328.145 419.572 C 326.908 420.545,325.432 420.040,324.846 418.442 C 324.635 417.869,324.449 417.610,324.432 417.867 M332.800 418.573 C 332.800 419.632,331.819 420.167,330.556 419.797 C 330.060 419.651,330.112 419.739,330.707 420.052 C 331.947 420.703,333.600 419.835,333.600 418.532 C 333.600 418.020,333.420 417.600,333.200 417.600 C 332.980 417.600,332.800 418.038,332.800 418.573 M311.325 420.100 C 312.243 420.942,312.433 420.956,313.385 420.260 C 314.052 419.773,314.001 419.738,312.858 419.906 C 312.162 420.008,311.361 419.936,311.077 419.746 C 310.794 419.556,310.906 419.715,311.325 420.100 M132.500 467.103 C 133.105 467.478,133.614 468.059,133.632 468.393 C 133.657 468.881,133.707 468.891,133.884 468.442 C 134.103 467.891,132.583 466.416,131.800 466.420 C 131.580 466.421,131.895 466.728,132.500 467.103 M128.054 468.900 C 127.991 470.183,128.910 470.387,130.061 469.345 C 130.738 468.732,130.807 468.750,131.127 469.613 C 131.331 470.165,131.577 470.361,131.738 470.101 C 132.273 469.235,130.801 468.275,130.021 468.981 C 129.065 469.846,128.485 469.753,128.282 468.700 C 128.134 467.928,128.101 467.957,128.054 468.900 M129.375 471.700 L 128.200 473.000 129.500 471.825 C 130.215 471.179,130.800 470.594,130.800 470.525 C 130.800 470.216,130.470 470.488,129.375 471.700 M130.420 473.104 C 129.846 473.568,129.642 474.044,129.818 474.504 C 130.345 475.877,132.000 474.979,132.000 473.320 C 132.000 472.217,131.584 472.161,130.420 473.104 M128.101 474.600 C 128.105 475.480,128.187 475.793,128.283 475.295 C 128.379 474.798,128.375 474.078,128.275 473.695 C 128.175 473.313,128.096 473.720,128.101 474.600 M131.600 473.776 C 131.600 474.093,131.404 474.474,131.165 474.622 C 130.600 474.971,129.829 474.200,130.178 473.635 C 130.571 473.000,131.600 473.103,131.600 473.776 M130.626 476.758 C 130.505 476.954,130.837 477.089,131.364 477.058 C 131.892 477.026,132.240 476.865,132.138 476.700 C 131.882 476.285,130.895 476.323,130.626 476.758 M334.834 528.159 C 334.563 528.485,333.950 528.828,333.471 528.922 C 332.605 529.090,332.605 529.091,333.451 529.146 C 333.919 529.175,334.526 528.930,334.800 528.600 C 335.374 527.908,336.241 527.813,336.537 528.410 C 336.649 528.635,336.694 528.591,336.637 528.310 C 336.486 527.564,335.404 527.473,334.834 528.159 M338.482 531.673 L 338.400 535.547 337.300 535.713 L 336.200 535.880 337.313 535.940 C 338.748 536.017,338.860 535.648,338.699 531.368 L 338.565 527.800 338.482 531.673 M335.034 532.473 C 334.583 533.116,334.538 533.484,334.860 533.873 C 335.718 534.906,336.857 534.188,336.775 532.667 C 336.761 532.410,336.575 532.636,336.362 533.168 C 336.072 533.895,335.862 534.022,335.517 533.677 C 335.173 533.333,335.241 533.018,335.791 532.409 C 336.194 531.964,336.326 531.600,336.085 531.600 C 335.843 531.600,335.370 531.993,335.034 532.473 M332.800 535.680 C 332.800 535.856,333.430 536.000,334.200 536.000 C 334.970 536.000,335.600 535.930,335.600 535.844 C 335.600 535.758,334.970 535.614,334.200 535.524 C 333.430 535.434,332.800 535.504,332.800 535.680 " stroke="none" fill="#ffffff" fill-rule="evenodd"></path><path id="path4" d="M320.000 45.581 C 318.930 46.276,319.122 65.352,320.200 65.486 C 320.640 65.541,320.775 65.484,320.500 65.360 C 319.973 65.121,319.736 47.552,320.243 46.233 C 320.517 45.518,323.004 45.339,323.337 46.010 C 323.449 46.236,323.495 46.191,323.439 45.910 C 323.315 45.284,320.824 45.046,320.000 45.581 M311.400 49.664 C 310.233 50.306,309.216 51.681,309.230 52.600 C 309.237 53.127,309.446 52.907,309.842 51.955 C 311.061 49.020,316.887 48.571,317.997 51.326 C 318.256 51.968,318.356 52.022,318.375 51.529 C 318.445 49.678,313.688 48.406,311.400 49.664 M325.500 49.903 C 324.895 50.278,324.400 50.736,324.400 50.920 C 324.400 51.104,324.923 50.882,325.562 50.427 C 327.378 49.134,330.872 49.257,331.971 50.654 C 332.427 51.234,332.800 51.511,332.800 51.270 C 332.800 49.370,327.853 48.444,325.500 49.903 M334.558 49.669 C 334.427 49.880,334.428 50.161,334.560 50.293 C 334.692 50.425,334.800 50.323,334.800 50.067 C 334.800 49.527,337.442 49.421,337.767 49.947 C 337.886 50.139,338.683 50.107,339.551 49.875 C 340.845 49.529,341.303 49.576,342.161 50.138 C 343.107 50.757,343.310 50.764,344.381 50.210 C 345.910 49.419,346.106 49.438,346.728 50.434 C 347.834 52.205,346.031 54.883,344.762 53.354 C 343.890 52.304,343.321 53.509,343.089 56.892 C 342.903 59.601,342.713 60.303,342.012 60.871 C 341.060 61.642,340.000 61.442,340.000 60.491 C 340.000 60.147,339.892 59.975,339.760 60.106 C 339.628 60.238,339.643 61.070,339.792 61.956 L 340.064 63.565 341.365 62.713 C 343.471 61.332,343.917 60.173,343.691 56.665 C 343.493 53.570,343.896 52.710,344.775 54.353 C 345.867 56.393,347.962 55.111,348.071 52.336 C 348.174 49.713,346.095 48.418,344.065 49.840 C 343.256 50.406,343.073 50.411,342.476 49.888 C 341.696 49.205,334.959 49.018,334.558 49.669 M323.600 52.424 C 323.600 52.877,323.780 53.136,324.000 53.000 C 324.220 52.864,324.400 52.493,324.400 52.176 C 324.400 51.859,324.220 51.600,324.000 51.600 C 323.780 51.600,323.600 51.971,323.600 52.424 M318.399 58.881 C 318.289 62.556,318.340 65.422,318.511 65.251 C 318.681 65.079,318.771 62.073,318.709 58.569 L 318.598 52.200 318.399 58.881 M333.119 58.607 C 333.273 63.669,333.202 64.960,332.755 65.273 C 332.296 65.594,332.304 65.633,332.800 65.498 C 333.489 65.310,333.914 54.089,333.275 52.948 C 333.074 52.588,333.008 54.964,333.119 58.607 M313.600 53.086 C 313.600 54.422,310.036 55.545,309.463 54.390 C 309.351 54.165,309.305 54.209,309.361 54.490 C 309.419 54.780,310.181 55.053,311.131 55.123 C 313.182 55.274,313.187 55.192,311.000 57.379 C 310.010 58.369,309.201 59.499,309.202 59.889 C 309.203 60.351,309.519 60.090,310.102 59.145 C 310.596 58.345,311.598 57.194,312.328 56.586 C 313.327 55.755,313.525 55.399,313.128 55.147 C 312.728 54.894,312.722 54.811,313.100 54.806 C 313.375 54.803,313.600 54.530,313.600 54.200 C 313.600 53.870,313.792 53.600,314.027 53.600 C 314.276 53.600,314.351 53.975,314.208 54.500 C 313.985 55.316,314.005 55.330,314.424 54.658 C 314.792 54.068,314.755 53.783,314.244 53.272 C 313.870 52.898,313.600 52.820,313.600 53.086 M327.400 54.000 C 327.126 54.863,325.065 55.152,324.596 54.393 C 324.243 53.822,323.594 54.313,323.632 55.124 C 323.649 55.496,323.740 55.615,323.835 55.390 C 324.035 54.913,327.200 55.123,327.200 55.613 C 327.200 55.794,326.795 56.271,326.300 56.674 C 325.805 57.076,325.138 57.764,324.817 58.203 C 324.497 58.641,324.857 58.444,325.617 57.765 C 327.192 56.358,329.193 54.449,328.621 54.900 C 327.772 55.568,327.153 55.235,327.620 54.362 C 327.915 53.811,328.330 53.593,328.835 53.725 C 329.256 53.835,329.500 53.762,329.377 53.563 C 328.967 52.899,327.658 53.189,327.400 54.000 M338.464 53.696 C 338.163 53.997,338.000 55.874,338.000 59.051 C 338.000 62.965,337.874 64.069,337.371 64.571 C 336.460 65.483,334.896 65.380,334.675 64.394 C 334.520 63.706,334.501 63.718,334.547 64.479 C 334.620 65.713,336.910 66.195,338.369 65.285 C 339.838 64.369,339.825 64.386,339.290 64.055 C 338.656 63.664,338.177 57.022,338.634 54.959 C 338.970 53.446,338.987 53.483,339.219 56.200 L 339.459 59.000 339.529 56.324 C 339.601 53.604,339.300 52.860,338.464 53.696 M313.356 59.771 C 312.983 60.743,313.369 62.200,314.000 62.200 C 314.405 62.200,314.640 61.711,314.724 60.700 C 314.852 59.156,313.852 58.478,313.356 59.771 M323.600 59.800 C 323.600 60.130,323.780 60.400,324.000 60.400 C 324.220 60.400,324.400 60.130,324.400 59.800 C 324.400 59.470,324.220 59.200,324.000 59.200 C 323.780 59.200,323.600 59.470,323.600 59.800 M329.264 60.500 C 329.201 61.985,328.316 62.617,327.865 61.500 C 327.707 61.108,327.656 61.111,327.632 61.513 C 327.590 62.192,328.747 62.613,329.256 62.104 C 329.477 61.883,329.584 61.094,329.493 60.351 L 329.328 59.000 329.264 60.500 M314.400 60.800 C 314.400 61.460,314.220 62.000,314.000 62.000 C 313.780 62.000,313.600 61.460,313.600 60.800 C 313.600 60.140,313.780 59.600,314.000 59.600 C 314.220 59.600,314.400 60.140,314.400 60.800 M198.541 61.077 C 197.768 61.228,196.964 62.698,197.410 63.144 C 198.239 63.972,202.590 63.332,202.459 62.400 C 202.244 60.879,201.258 60.546,198.541 61.077 M60.081 62.183 C 59.557 63.331,59.383 63.254,62.846 63.412 C 65.534 63.534,66.401 63.147,65.758 62.111 C 64.967 60.836,60.670 60.890,60.081 62.183 M202.400 63.014 C 202.400 63.116,201.635 63.194,200.700 63.186 C 199.040 63.172,199.024 63.159,199.993 62.622 C 200.884 62.129,202.400 62.376,202.400 63.014 M65.000 62.800 C 65.136 63.020,64.866 63.200,64.400 63.200 C 63.934 63.200,63.664 63.020,63.800 62.800 C 63.936 62.580,64.206 62.400,64.400 62.400 C 64.594 62.400,64.864 62.580,65.000 62.800 M309.245 63.200 C 309.225 63.847,310.532 65.600,311.034 65.600 C 311.202 65.600,310.971 65.195,310.521 64.700 C 310.070 64.205,309.603 63.530,309.482 63.200 C 309.288 62.667,309.261 62.667,309.245 63.200 M323.603 63.476 C 323.606 64.403,325.954 66.012,327.225 65.959 C 328.031 65.925,327.976 65.865,326.902 65.610 C 325.393 65.252,324.400 64.524,324.400 63.775 C 324.400 63.485,324.220 63.136,324.000 63.000 C 323.780 62.864,323.601 63.078,323.603 63.476 M314.510 64.850 C 314.270 65.090,313.472 65.442,312.737 65.632 L 311.400 65.978 312.800 65.766 C 313.570 65.650,314.633 65.548,315.161 65.539 C 315.690 65.530,315.960 65.403,315.761 65.257 C 315.563 65.110,315.298 64.861,315.173 64.702 C 315.049 64.543,314.750 64.610,314.510 64.850 M63.443 292.633 C 63.038 293.688,63.160 294.011,64.100 294.363 C 65.096 294.736,65.629 293.995,65.291 292.706 C 65.062 291.829,63.771 291.777,63.443 292.633 M319.695 400.900 C 319.123 401.609,319.032 418.938,319.594 419.989 C 320.187 421.097,323.603 421.192,323.594 420.100 C 323.589 419.568,323.507 419.527,323.252 419.930 C 323.050 420.248,322.375 420.408,321.558 420.330 L 320.200 420.200 320.200 410.600 L 320.200 401.000 321.863 401.000 C 322.777 401.000,323.441 400.865,323.339 400.700 C 323.031 400.203,320.128 400.363,319.695 400.900 M311.732 404.283 C 310.349 404.972,308.956 407.132,309.313 408.034 C 309.476 408.446,309.545 408.406,309.568 407.886 C 309.648 406.079,311.458 404.480,314.000 403.972 C 315.354 403.701,315.361 403.691,314.200 403.672 C 313.540 403.660,312.429 403.935,311.732 404.283 M326.183 404.328 C 324.471 405.396,322.864 408.000,323.917 408.000 C 324.092 408.000,324.407 407.427,324.617 406.726 C 325.361 404.250,329.112 403.389,330.494 405.377 C 330.695 405.667,330.790 405.658,330.794 405.349 C 330.813 403.918,327.881 403.269,326.183 404.328 M316.356 404.558 C 316.882 404.850,317.550 405.518,317.842 406.044 C 318.231 406.746,318.375 406.822,318.386 406.329 C 318.401 405.623,316.609 403.990,315.846 404.014 C 315.601 404.022,315.830 404.267,316.356 404.558 M318.394 413.600 L 318.200 420.200 317.076 420.329 C 316.458 420.400,315.701 420.250,315.394 419.995 C 314.965 419.639,314.562 419.695,313.635 420.243 C 312.139 421.127,310.835 420.577,309.880 418.661 C 309.503 417.905,309.241 417.668,309.226 418.069 C 309.151 420.018,312.166 421.634,313.835 420.541 C 314.592 420.044,314.955 419.995,315.301 420.341 C 315.553 420.593,316.351 420.800,317.072 420.800 C 318.787 420.800,318.859 420.458,318.708 413.000 L 318.587 407.000 318.394 413.600 M313.318 408.793 C 313.115 409.569,312.866 409.654,311.144 409.535 C 310.075 409.461,309.200 409.535,309.200 409.700 C 309.200 409.865,310.100 410.000,311.200 410.000 C 313.563 410.000,313.583 410.047,311.900 411.646 C 310.941 412.557,311.111 412.480,312.545 411.356 C 313.615 410.516,314.290 409.763,314.045 409.682 C 313.511 409.504,313.444 408.400,313.967 408.400 C 314.168 408.400,314.425 408.584,314.537 408.810 C 314.649 409.036,314.697 409.002,314.645 408.735 C 314.473 407.858,313.552 407.898,313.318 408.793 M327.600 408.363 C 327.600 408.562,327.944 408.635,328.364 408.525 C 328.876 408.391,329.189 408.568,329.317 409.063 C 329.472 409.663,329.516 409.633,329.554 408.900 C 329.590 408.194,329.384 408.000,328.600 408.000 C 328.050 408.000,327.600 408.163,327.600 408.363 M323.600 409.911 C 323.600 410.081,324.320 410.152,325.200 410.069 C 326.080 409.985,326.800 409.845,326.800 409.758 C 326.800 409.671,326.080 409.600,325.200 409.600 C 324.320 409.600,323.600 409.740,323.600 409.911 M326.036 411.904 C 323.762 414.054,323.054 415.200,324.000 415.200 C 324.220 415.200,324.400 414.916,324.400 414.569 C 324.400 413.969,327.460 410.800,328.040 410.800 C 328.191 410.800,328.418 410.530,328.545 410.200 C 328.905 409.262,328.638 409.443,326.036 411.904 M309.621 413.761 C 309.338 414.289,309.204 414.964,309.322 415.261 C 309.452 415.588,309.549 415.477,309.568 414.980 C 309.586 414.529,309.813 413.947,310.073 413.687 C 310.334 413.426,310.454 413.121,310.341 413.007 C 310.227 412.894,309.903 413.233,309.621 413.761 M328.171 414.491 L 327.400 415.400 328.300 414.638 L 329.200 413.876 329.260 415.238 C 329.316 416.520,329.330 416.532,329.491 415.451 C 329.731 413.846,329.104 413.389,328.171 414.491 M313.467 414.267 C 313.135 414.598,313.115 416.581,313.439 416.906 C 314.028 417.495,314.800 416.616,314.800 415.357 C 314.800 414.080,314.169 413.564,313.467 414.267 M314.400 415.376 C 314.400 415.913,314.220 416.464,314.000 416.600 C 313.767 416.744,313.600 416.337,313.600 415.624 C 313.600 414.951,313.780 414.400,314.000 414.400 C 314.220 414.400,314.400 414.839,314.400 415.376 M323.615 418.300 C 323.649 419.937,326.910 421.593,328.218 420.636 C 328.758 420.241,329.204 420.188,329.710 420.459 C 330.684 420.980,333.698 420.722,333.902 420.100 C 333.993 419.825,333.782 419.600,333.433 419.600 C 333.085 419.600,332.800 419.780,332.800 420.000 C 332.800 420.516,330.967 420.517,330.003 420.002 C 329.458 419.710,328.936 419.789,328.052 420.296 C 326.640 421.106,324.719 420.121,324.472 418.460 C 324.320 417.433,323.594 417.298,323.615 418.300 M128.562 466.900 C 127.801 467.799,127.801 467.799,128.631 467.100 C 129.685 466.213,131.927 466.199,133.211 467.072 L 134.200 467.745 133.438 466.872 C 132.360 465.638,129.617 465.654,128.562 466.900 M127.737 468.969 C 127.772 469.629,128.062 470.209,128.400 470.300 C 128.801 470.407,128.848 470.351,128.540 470.130 C 128.288 469.949,127.989 469.350,127.877 468.800 C 127.701 467.939,127.682 467.962,127.737 468.969 M134.085 472.479 L 134.000 477.158 131.501 477.146 C 127.368 477.127,126.521 474.516,129.614 471.328 C 130.627 470.286,131.064 469.563,130.788 469.392 C 130.545 469.243,130.300 469.183,130.243 469.260 C 126.189 474.726,126.592 477.550,131.426 477.550 C 134.579 477.550,134.465 477.764,134.299 472.174 L 134.170 467.800 134.085 472.479 M130.200 473.600 C 129.769 474.297,130.408 474.892,131.031 474.374 C 131.339 474.118,131.493 473.750,131.372 473.555 C 131.080 473.083,130.506 473.105,130.200 473.600 M332.792 526.210 C 332.044 527.111,332.478 527.215,333.370 526.348 C 333.793 525.937,333.951 525.600,333.719 525.600 C 333.487 525.600,333.070 525.874,332.792 526.210 M337.881 526.563 C 338.277 527.093,338.659 527.364,338.732 527.167 C 338.805 526.969,338.593 526.536,338.261 526.204 C 337.323 525.265,337.083 525.493,337.881 526.563 M332.025 527.926 C 331.978 528.910,332.825 530.000,333.636 530.000 C 334.364 530.000,334.333 530.100,333.322 531.011 L 332.200 532.021 333.660 531.111 C 334.462 530.610,335.418 529.705,335.782 529.100 C 336.574 527.787,336.198 527.675,334.946 528.851 C 333.900 529.834,332.946 529.630,332.416 528.309 C 332.215 527.809,332.039 527.637,332.025 527.926 M338.875 531.800 C 338.769 536.186,338.587 536.546,336.658 536.185 C 335.399 535.948,335.204 536.013,335.232 536.655 C 335.249 537.077,335.351 537.183,335.465 536.900 C 335.771 536.142,336.281 536.301,336.523 537.229 C 336.732 538.025,336.780 538.031,337.775 537.380 C 339.094 536.515,339.267 535.762,339.099 531.600 L 338.963 528.200 338.875 531.800 M332.406 535.467 C 332.392 536.535,332.944 537.200,333.843 537.200 C 335.052 537.200,335.089 536.544,333.900 536.173 C 333.405 536.019,332.868 535.691,332.706 535.446 C 332.494 535.124,332.411 535.130,332.406 535.467 " stroke="none" fill="#ffffff" fill-rule="evenodd"></path></g></svg>